<mxfile host="Electron" modified="2024-01-09T15:57:40.780Z" agent="Mozilla/5.0 (Windows NT 10.0; Win64; x64) AppleWebKit/537.36 (KHTML, like Gecko) draw.io/22.1.16 Chrome/120.0.6099.109 Electron/28.1.0 Safari/537.36" etag="cOVT5-7xsa3CzhyPh1kF" version="22.1.16" type="device">
  <diagram id="C5RBs43oDa-KdzZeNtuy" name="Page-1">
    <mxGraphModel dx="4701" dy="825" grid="1" gridSize="10" guides="1" tooltips="1" connect="1" arrows="1" fold="1" page="1" pageScale="1" pageWidth="3300" pageHeight="4681" math="0" shadow="0">
      <root>
        <mxCell id="WIyWlLk6GJQsqaUBKTNV-0" />
        <mxCell id="WIyWlLk6GJQsqaUBKTNV-1" parent="WIyWlLk6GJQsqaUBKTNV-0" />
        <mxCell id="MxjxTP8P5uc9W1wrr7oE-2" value="СУБД PostgreSQL" style="text;html=1;strokeColor=none;fillColor=none;align=center;verticalAlign=middle;whiteSpace=wrap;rounded=0;fontSize=25;" vertex="1" parent="WIyWlLk6GJQsqaUBKTNV-1">
          <mxGeometry x="440" y="110" width="220" height="100" as="geometry" />
        </mxCell>
        <mxCell id="MxjxTP8P5uc9W1wrr7oE-3" value="Хеши паролей" style="rounded=0;whiteSpace=wrap;html=1;" vertex="1" parent="WIyWlLk6GJQsqaUBKTNV-1">
          <mxGeometry x="80" y="410" width="120" height="60" as="geometry" />
        </mxCell>
        <mxCell id="MxjxTP8P5uc9W1wrr7oE-4" value="Хеши кейлогов" style="rounded=0;whiteSpace=wrap;html=1;" vertex="1" parent="WIyWlLk6GJQsqaUBKTNV-1">
          <mxGeometry x="880" y="410" width="120" height="60" as="geometry" />
        </mxCell>
        <mxCell id="MxjxTP8P5uc9W1wrr7oE-5" value="Изменения в данных таблицы с хешами паролей" style="rounded=0;whiteSpace=wrap;html=1;" vertex="1" parent="WIyWlLk6GJQsqaUBKTNV-1">
          <mxGeometry x="80" y="660" width="120" height="60" as="geometry" />
        </mxCell>
        <mxCell id="MxjxTP8P5uc9W1wrr7oE-8" value="Уникальный идентификатор почтового сообщения" style="rounded=1;whiteSpace=wrap;html=1;" vertex="1" parent="WIyWlLk6GJQsqaUBKTNV-1">
          <mxGeometry x="-30" y="280" width="160" height="30" as="geometry" />
        </mxCell>
        <mxCell id="MxjxTP8P5uc9W1wrr7oE-9" value="id записи с паролем" style="rounded=1;whiteSpace=wrap;html=1;" vertex="1" parent="WIyWlLk6GJQsqaUBKTNV-1">
          <mxGeometry x="-210" y="280" width="160" height="30" as="geometry" />
        </mxCell>
        <mxCell id="MxjxTP8P5uc9W1wrr7oE-10" value="Время получения почтового сообщения" style="rounded=1;whiteSpace=wrap;html=1;" vertex="1" parent="WIyWlLk6GJQsqaUBKTNV-1">
          <mxGeometry x="150" y="280" width="160" height="30" as="geometry" />
        </mxCell>
        <mxCell id="MxjxTP8P5uc9W1wrr7oE-11" value="Хеш пароля" style="rounded=1;whiteSpace=wrap;html=1;" vertex="1" parent="WIyWlLk6GJQsqaUBKTNV-1">
          <mxGeometry x="330" y="280" width="160" height="30" as="geometry" />
        </mxCell>
        <mxCell id="MxjxTP8P5uc9W1wrr7oE-13" value="" style="endArrow=none;html=1;rounded=0;exitX=0.5;exitY=1;exitDx=0;exitDy=0;entryX=0.5;entryY=0;entryDx=0;entryDy=0;" edge="1" parent="WIyWlLk6GJQsqaUBKTNV-1" source="MxjxTP8P5uc9W1wrr7oE-11" target="MxjxTP8P5uc9W1wrr7oE-3">
          <mxGeometry width="50" height="50" relative="1" as="geometry">
            <mxPoint x="110" y="360" as="sourcePoint" />
            <mxPoint x="160" y="310" as="targetPoint" />
          </mxGeometry>
        </mxCell>
        <mxCell id="MxjxTP8P5uc9W1wrr7oE-14" value="" style="endArrow=none;html=1;rounded=0;exitX=0.5;exitY=1;exitDx=0;exitDy=0;entryX=0.5;entryY=0;entryDx=0;entryDy=0;" edge="1" parent="WIyWlLk6GJQsqaUBKTNV-1" source="MxjxTP8P5uc9W1wrr7oE-10" target="MxjxTP8P5uc9W1wrr7oE-3">
          <mxGeometry width="50" height="50" relative="1" as="geometry">
            <mxPoint x="110" y="330" as="sourcePoint" />
            <mxPoint x="380" y="430" as="targetPoint" />
          </mxGeometry>
        </mxCell>
        <mxCell id="MxjxTP8P5uc9W1wrr7oE-15" value="" style="endArrow=none;html=1;rounded=0;exitX=0.5;exitY=1;exitDx=0;exitDy=0;entryX=0.5;entryY=0;entryDx=0;entryDy=0;" edge="1" parent="WIyWlLk6GJQsqaUBKTNV-1" source="MxjxTP8P5uc9W1wrr7oE-9" target="MxjxTP8P5uc9W1wrr7oE-3">
          <mxGeometry width="50" height="50" relative="1" as="geometry">
            <mxPoint x="270" y="350" as="sourcePoint" />
            <mxPoint x="540" y="450" as="targetPoint" />
          </mxGeometry>
        </mxCell>
        <mxCell id="MxjxTP8P5uc9W1wrr7oE-16" value="" style="endArrow=none;html=1;rounded=0;exitX=0.5;exitY=1;exitDx=0;exitDy=0;entryX=0.5;entryY=0;entryDx=0;entryDy=0;" edge="1" parent="WIyWlLk6GJQsqaUBKTNV-1" source="MxjxTP8P5uc9W1wrr7oE-8" target="MxjxTP8P5uc9W1wrr7oE-3">
          <mxGeometry width="50" height="50" relative="1" as="geometry">
            <mxPoint x="350" y="360" as="sourcePoint" />
            <mxPoint x="620" y="460" as="targetPoint" />
          </mxGeometry>
        </mxCell>
        <mxCell id="MxjxTP8P5uc9W1wrr7oE-17" value="id записи с кейлогом" style="rounded=1;whiteSpace=wrap;html=1;" vertex="1" parent="WIyWlLk6GJQsqaUBKTNV-1">
          <mxGeometry x="590" y="280" width="160" height="30" as="geometry" />
        </mxCell>
        <mxCell id="MxjxTP8P5uc9W1wrr7oE-18" value="Уникальный идентификатор почтового сообщения" style="rounded=1;whiteSpace=wrap;html=1;" vertex="1" parent="WIyWlLk6GJQsqaUBKTNV-1">
          <mxGeometry x="770" y="280" width="160" height="30" as="geometry" />
        </mxCell>
        <mxCell id="MxjxTP8P5uc9W1wrr7oE-19" value="Время получения почтового сообщения" style="rounded=1;whiteSpace=wrap;html=1;" vertex="1" parent="WIyWlLk6GJQsqaUBKTNV-1">
          <mxGeometry x="950" y="280" width="160" height="30" as="geometry" />
        </mxCell>
        <mxCell id="MxjxTP8P5uc9W1wrr7oE-20" value="Хеш кейлога" style="rounded=1;whiteSpace=wrap;html=1;" vertex="1" parent="WIyWlLk6GJQsqaUBKTNV-1">
          <mxGeometry x="1130" y="280" width="160" height="30" as="geometry" />
        </mxCell>
        <mxCell id="MxjxTP8P5uc9W1wrr7oE-21" value="" style="endArrow=none;html=1;rounded=0;exitX=0.5;exitY=1;exitDx=0;exitDy=0;entryX=0.5;entryY=0;entryDx=0;entryDy=0;" edge="1" parent="WIyWlLk6GJQsqaUBKTNV-1" source="MxjxTP8P5uc9W1wrr7oE-17" target="MxjxTP8P5uc9W1wrr7oE-4">
          <mxGeometry width="50" height="50" relative="1" as="geometry">
            <mxPoint x="820" y="350" as="sourcePoint" />
            <mxPoint x="550" y="450" as="targetPoint" />
          </mxGeometry>
        </mxCell>
        <mxCell id="MxjxTP8P5uc9W1wrr7oE-22" value="" style="endArrow=none;html=1;rounded=0;exitX=0.5;exitY=1;exitDx=0;exitDy=0;entryX=0.5;entryY=0;entryDx=0;entryDy=0;" edge="1" parent="WIyWlLk6GJQsqaUBKTNV-1" source="MxjxTP8P5uc9W1wrr7oE-18" target="MxjxTP8P5uc9W1wrr7oE-4">
          <mxGeometry width="50" height="50" relative="1" as="geometry">
            <mxPoint x="850" y="350" as="sourcePoint" />
            <mxPoint x="580" y="450" as="targetPoint" />
          </mxGeometry>
        </mxCell>
        <mxCell id="MxjxTP8P5uc9W1wrr7oE-23" value="" style="endArrow=none;html=1;rounded=0;exitX=0.5;exitY=1;exitDx=0;exitDy=0;entryX=0.5;entryY=0;entryDx=0;entryDy=0;" edge="1" parent="WIyWlLk6GJQsqaUBKTNV-1" source="MxjxTP8P5uc9W1wrr7oE-19" target="MxjxTP8P5uc9W1wrr7oE-4">
          <mxGeometry width="50" height="50" relative="1" as="geometry">
            <mxPoint x="1010" y="350" as="sourcePoint" />
            <mxPoint x="740" y="450" as="targetPoint" />
          </mxGeometry>
        </mxCell>
        <mxCell id="MxjxTP8P5uc9W1wrr7oE-24" value="" style="endArrow=none;html=1;rounded=0;exitX=0.5;exitY=1;exitDx=0;exitDy=0;entryX=0.5;entryY=0;entryDx=0;entryDy=0;" edge="1" parent="WIyWlLk6GJQsqaUBKTNV-1" source="MxjxTP8P5uc9W1wrr7oE-20" target="MxjxTP8P5uc9W1wrr7oE-4">
          <mxGeometry width="50" height="50" relative="1" as="geometry">
            <mxPoint x="1120" y="380" as="sourcePoint" />
            <mxPoint x="850" y="480" as="targetPoint" />
          </mxGeometry>
        </mxCell>
        <mxCell id="MxjxTP8P5uc9W1wrr7oE-26" value="id записи с паролем, над которой произвели изменения" style="rounded=1;whiteSpace=wrap;html=1;" vertex="1" parent="WIyWlLk6GJQsqaUBKTNV-1">
          <mxGeometry x="150" y="810" width="180" height="30" as="geometry" />
        </mxCell>
        <mxCell id="MxjxTP8P5uc9W1wrr7oE-27" value="id записи об аудите" style="rounded=1;whiteSpace=wrap;html=1;" vertex="1" parent="WIyWlLk6GJQsqaUBKTNV-1">
          <mxGeometry x="-210" y="810" width="160" height="30" as="geometry" />
        </mxCell>
        <mxCell id="MxjxTP8P5uc9W1wrr7oE-28" value="Время изменения записи" style="rounded=1;whiteSpace=wrap;html=1;" vertex="1" parent="WIyWlLk6GJQsqaUBKTNV-1">
          <mxGeometry x="-30" y="810" width="160" height="30" as="geometry" />
        </mxCell>
        <mxCell id="MxjxTP8P5uc9W1wrr7oE-29" value="Тип изменения" style="rounded=1;whiteSpace=wrap;html=1;" vertex="1" parent="WIyWlLk6GJQsqaUBKTNV-1">
          <mxGeometry x="350" y="810" width="160" height="30" as="geometry" />
        </mxCell>
        <mxCell id="MxjxTP8P5uc9W1wrr7oE-30" value="" style="endArrow=none;html=1;rounded=0;exitX=0.5;exitY=0;exitDx=0;exitDy=0;entryX=0.5;entryY=1;entryDx=0;entryDy=0;" edge="1" parent="WIyWlLk6GJQsqaUBKTNV-1" source="MxjxTP8P5uc9W1wrr7oE-27" target="MxjxTP8P5uc9W1wrr7oE-5">
          <mxGeometry width="50" height="50" relative="1" as="geometry">
            <mxPoint x="-100" y="700" as="sourcePoint" />
            <mxPoint x="170" y="800" as="targetPoint" />
          </mxGeometry>
        </mxCell>
        <mxCell id="MxjxTP8P5uc9W1wrr7oE-31" value="" style="endArrow=none;html=1;rounded=0;exitX=0.5;exitY=0;exitDx=0;exitDy=0;entryX=0.5;entryY=1;entryDx=0;entryDy=0;" edge="1" parent="WIyWlLk6GJQsqaUBKTNV-1" source="MxjxTP8P5uc9W1wrr7oE-28" target="MxjxTP8P5uc9W1wrr7oE-5">
          <mxGeometry width="50" height="50" relative="1" as="geometry">
            <mxPoint x="140" y="750" as="sourcePoint" />
            <mxPoint x="410" y="850" as="targetPoint" />
          </mxGeometry>
        </mxCell>
        <mxCell id="MxjxTP8P5uc9W1wrr7oE-32" value="" style="endArrow=none;html=1;rounded=0;exitX=0.5;exitY=1;exitDx=0;exitDy=0;entryX=0.5;entryY=0;entryDx=0;entryDy=0;" edge="1" parent="WIyWlLk6GJQsqaUBKTNV-1" source="MxjxTP8P5uc9W1wrr7oE-5" target="MxjxTP8P5uc9W1wrr7oE-26">
          <mxGeometry width="50" height="50" relative="1" as="geometry">
            <mxPoint x="260" y="710" as="sourcePoint" />
            <mxPoint x="530" y="810" as="targetPoint" />
          </mxGeometry>
        </mxCell>
        <mxCell id="MxjxTP8P5uc9W1wrr7oE-33" value="" style="endArrow=none;html=1;rounded=0;exitX=0.5;exitY=0;exitDx=0;exitDy=0;entryX=0.5;entryY=1;entryDx=0;entryDy=0;" edge="1" parent="WIyWlLk6GJQsqaUBKTNV-1" source="MxjxTP8P5uc9W1wrr7oE-29" target="MxjxTP8P5uc9W1wrr7oE-5">
          <mxGeometry width="50" height="50" relative="1" as="geometry">
            <mxPoint x="360" y="730" as="sourcePoint" />
            <mxPoint x="630" y="830" as="targetPoint" />
          </mxGeometry>
        </mxCell>
        <mxCell id="MxjxTP8P5uc9W1wrr7oE-34" value="Изменения в данных таблицы с хешами кейлогов" style="rounded=0;whiteSpace=wrap;html=1;" vertex="1" parent="WIyWlLk6GJQsqaUBKTNV-1">
          <mxGeometry x="880" y="660" width="120" height="60" as="geometry" />
        </mxCell>
        <mxCell id="MxjxTP8P5uc9W1wrr7oE-35" value="id записи с кейлогом, над которой произвели изменения" style="rounded=1;whiteSpace=wrap;html=1;" vertex="1" parent="WIyWlLk6GJQsqaUBKTNV-1">
          <mxGeometry x="950" y="810" width="180" height="30" as="geometry" />
        </mxCell>
        <mxCell id="MxjxTP8P5uc9W1wrr7oE-36" value="id записи об аудите" style="rounded=1;whiteSpace=wrap;html=1;" vertex="1" parent="WIyWlLk6GJQsqaUBKTNV-1">
          <mxGeometry x="590" y="810" width="160" height="30" as="geometry" />
        </mxCell>
        <mxCell id="MxjxTP8P5uc9W1wrr7oE-37" value="Время изменения записи" style="rounded=1;whiteSpace=wrap;html=1;" vertex="1" parent="WIyWlLk6GJQsqaUBKTNV-1">
          <mxGeometry x="770" y="810" width="160" height="30" as="geometry" />
        </mxCell>
        <mxCell id="MxjxTP8P5uc9W1wrr7oE-38" value="Тип изменения" style="rounded=1;whiteSpace=wrap;html=1;" vertex="1" parent="WIyWlLk6GJQsqaUBKTNV-1">
          <mxGeometry x="1150" y="810" width="160" height="30" as="geometry" />
        </mxCell>
        <mxCell id="MxjxTP8P5uc9W1wrr7oE-39" value="" style="endArrow=none;html=1;rounded=0;exitX=0.5;exitY=0;exitDx=0;exitDy=0;entryX=0.5;entryY=1;entryDx=0;entryDy=0;" edge="1" parent="WIyWlLk6GJQsqaUBKTNV-1" source="MxjxTP8P5uc9W1wrr7oE-36" target="MxjxTP8P5uc9W1wrr7oE-34">
          <mxGeometry width="50" height="50" relative="1" as="geometry">
            <mxPoint x="700" y="700" as="sourcePoint" />
            <mxPoint x="970" y="800" as="targetPoint" />
          </mxGeometry>
        </mxCell>
        <mxCell id="MxjxTP8P5uc9W1wrr7oE-40" value="" style="endArrow=none;html=1;rounded=0;exitX=0.5;exitY=0;exitDx=0;exitDy=0;entryX=0.5;entryY=1;entryDx=0;entryDy=0;" edge="1" parent="WIyWlLk6GJQsqaUBKTNV-1" source="MxjxTP8P5uc9W1wrr7oE-37" target="MxjxTP8P5uc9W1wrr7oE-34">
          <mxGeometry width="50" height="50" relative="1" as="geometry">
            <mxPoint x="940" y="750" as="sourcePoint" />
            <mxPoint x="1210" y="850" as="targetPoint" />
          </mxGeometry>
        </mxCell>
        <mxCell id="MxjxTP8P5uc9W1wrr7oE-41" value="" style="endArrow=none;html=1;rounded=0;exitX=0.5;exitY=1;exitDx=0;exitDy=0;entryX=0.5;entryY=0;entryDx=0;entryDy=0;" edge="1" parent="WIyWlLk6GJQsqaUBKTNV-1" source="MxjxTP8P5uc9W1wrr7oE-34" target="MxjxTP8P5uc9W1wrr7oE-35">
          <mxGeometry width="50" height="50" relative="1" as="geometry">
            <mxPoint x="1060" y="710" as="sourcePoint" />
            <mxPoint x="1330" y="810" as="targetPoint" />
          </mxGeometry>
        </mxCell>
        <mxCell id="MxjxTP8P5uc9W1wrr7oE-42" value="" style="endArrow=none;html=1;rounded=0;exitX=0.5;exitY=0;exitDx=0;exitDy=0;entryX=0.5;entryY=1;entryDx=0;entryDy=0;" edge="1" parent="WIyWlLk6GJQsqaUBKTNV-1" source="MxjxTP8P5uc9W1wrr7oE-38" target="MxjxTP8P5uc9W1wrr7oE-34">
          <mxGeometry width="50" height="50" relative="1" as="geometry">
            <mxPoint x="1160" y="730" as="sourcePoint" />
            <mxPoint x="1430" y="830" as="targetPoint" />
          </mxGeometry>
        </mxCell>
        <mxCell id="MxjxTP8P5uc9W1wrr7oE-45" style="edgeStyle=orthogonalEdgeStyle;rounded=0;orthogonalLoop=1;jettySize=auto;html=1;exitX=0.5;exitY=0;exitDx=0;exitDy=0;entryX=0.5;entryY=1;entryDx=0;entryDy=0;" edge="1" parent="WIyWlLk6GJQsqaUBKTNV-1" source="MxjxTP8P5uc9W1wrr7oE-43" target="MxjxTP8P5uc9W1wrr7oE-3">
          <mxGeometry relative="1" as="geometry" />
        </mxCell>
        <mxCell id="MxjxTP8P5uc9W1wrr7oE-46" style="edgeStyle=orthogonalEdgeStyle;rounded=0;orthogonalLoop=1;jettySize=auto;html=1;exitX=0.5;exitY=1;exitDx=0;exitDy=0;entryX=0.5;entryY=0;entryDx=0;entryDy=0;" edge="1" parent="WIyWlLk6GJQsqaUBKTNV-1" source="MxjxTP8P5uc9W1wrr7oE-43" target="MxjxTP8P5uc9W1wrr7oE-5">
          <mxGeometry relative="1" as="geometry" />
        </mxCell>
        <mxCell id="MxjxTP8P5uc9W1wrr7oE-47" style="edgeStyle=orthogonalEdgeStyle;rounded=0;orthogonalLoop=1;jettySize=auto;html=1;exitX=0.5;exitY=1;exitDx=0;exitDy=0;" edge="1" parent="WIyWlLk6GJQsqaUBKTNV-1" source="MxjxTP8P5uc9W1wrr7oE-43">
          <mxGeometry relative="1" as="geometry">
            <mxPoint x="140" y="650" as="targetPoint" />
          </mxGeometry>
        </mxCell>
        <mxCell id="MxjxTP8P5uc9W1wrr7oE-43" value="Отслеживаются изменения" style="rhombus;whiteSpace=wrap;html=1;" vertex="1" parent="WIyWlLk6GJQsqaUBKTNV-1">
          <mxGeometry x="65" y="540" width="150" height="60" as="geometry" />
        </mxCell>
        <mxCell id="MxjxTP8P5uc9W1wrr7oE-48" style="edgeStyle=orthogonalEdgeStyle;rounded=0;orthogonalLoop=1;jettySize=auto;html=1;exitX=0.5;exitY=0;exitDx=0;exitDy=0;entryX=0.5;entryY=1;entryDx=0;entryDy=0;" edge="1" parent="WIyWlLk6GJQsqaUBKTNV-1" source="MxjxTP8P5uc9W1wrr7oE-50">
          <mxGeometry relative="1" as="geometry">
            <mxPoint x="940" y="470" as="targetPoint" />
          </mxGeometry>
        </mxCell>
        <mxCell id="MxjxTP8P5uc9W1wrr7oE-49" style="edgeStyle=orthogonalEdgeStyle;rounded=0;orthogonalLoop=1;jettySize=auto;html=1;exitX=0.5;exitY=1;exitDx=0;exitDy=0;" edge="1" parent="WIyWlLk6GJQsqaUBKTNV-1" source="MxjxTP8P5uc9W1wrr7oE-50">
          <mxGeometry relative="1" as="geometry">
            <mxPoint x="940" y="650" as="targetPoint" />
          </mxGeometry>
        </mxCell>
        <mxCell id="MxjxTP8P5uc9W1wrr7oE-52" style="edgeStyle=orthogonalEdgeStyle;rounded=0;orthogonalLoop=1;jettySize=auto;html=1;exitX=0.5;exitY=1;exitDx=0;exitDy=0;entryX=0.5;entryY=0;entryDx=0;entryDy=0;" edge="1" parent="WIyWlLk6GJQsqaUBKTNV-1" source="MxjxTP8P5uc9W1wrr7oE-50" target="MxjxTP8P5uc9W1wrr7oE-34">
          <mxGeometry relative="1" as="geometry" />
        </mxCell>
        <mxCell id="MxjxTP8P5uc9W1wrr7oE-50" value="Отслеживаются изменения" style="rhombus;whiteSpace=wrap;html=1;" vertex="1" parent="WIyWlLk6GJQsqaUBKTNV-1">
          <mxGeometry x="865" y="540" width="150" height="60" as="geometry" />
        </mxCell>
        <mxCell id="MxjxTP8P5uc9W1wrr7oE-53" value="Один ко многим" style="text;html=1;strokeColor=none;fillColor=none;align=center;verticalAlign=middle;whiteSpace=wrap;rounded=0;" vertex="1" parent="WIyWlLk6GJQsqaUBKTNV-1">
          <mxGeometry x="150" y="620" width="60" height="30" as="geometry" />
        </mxCell>
        <mxCell id="MxjxTP8P5uc9W1wrr7oE-55" value="Один ко многим" style="text;html=1;strokeColor=none;fillColor=none;align=center;verticalAlign=middle;whiteSpace=wrap;rounded=0;" vertex="1" parent="WIyWlLk6GJQsqaUBKTNV-1">
          <mxGeometry x="950" y="620" width="60" height="30" as="geometry" />
        </mxCell>
        <mxCell id="MxjxTP8P5uc9W1wrr7oE-56" value="На одну запись о кейлоге может приходиться несколько записей об аудите изменений" style="text;html=1;strokeColor=none;fillColor=none;align=center;verticalAlign=middle;whiteSpace=wrap;rounded=0;" vertex="1" parent="WIyWlLk6GJQsqaUBKTNV-1">
          <mxGeometry x="1040" y="555" width="220" height="30" as="geometry" />
        </mxCell>
        <mxCell id="MxjxTP8P5uc9W1wrr7oE-57" value="На одну запись о пароле может приходиться несколько записей об аудите изменений" style="text;html=1;strokeColor=none;fillColor=none;align=center;verticalAlign=middle;whiteSpace=wrap;rounded=0;" vertex="1" parent="WIyWlLk6GJQsqaUBKTNV-1">
          <mxGeometry x="-180" y="555" width="220" height="30" as="geometry" />
        </mxCell>
        <mxCell id="MxjxTP8P5uc9W1wrr7oE-59" value="Концептуальная модель базы данных &quot;EHP_Project&quot;" style="text;html=1;strokeColor=none;fillColor=none;align=center;verticalAlign=middle;whiteSpace=wrap;rounded=0;fontSize=25;" vertex="1" parent="WIyWlLk6GJQsqaUBKTNV-1">
          <mxGeometry x="360" y="50" width="380" height="100" as="geometry" />
        </mxCell>
        <mxCell id="MxjxTP8P5uc9W1wrr7oE-61" value="ER-Диаграмма&lt;br&gt;(db.designer)" style="text;html=1;strokeColor=none;fillColor=none;align=center;verticalAlign=middle;whiteSpace=wrap;rounded=0;fontSize=25;" vertex="1" parent="WIyWlLk6GJQsqaUBKTNV-1">
          <mxGeometry x="440" y="930" width="220" height="100" as="geometry" />
        </mxCell>
        <mxCell id="MxjxTP8P5uc9W1wrr7oE-62" value="Ссылка: https://dbdesigner.page.link/qf9u1Gco7GMcPkik6" style="text;html=1;align=center;verticalAlign=middle;resizable=0;points=[];autosize=1;strokeColor=none;fillColor=none;" vertex="1" parent="WIyWlLk6GJQsqaUBKTNV-1">
          <mxGeometry x="380" y="1010" width="340" height="30" as="geometry" />
        </mxCell>
        <mxCell id="MxjxTP8P5uc9W1wrr7oE-67" value="" style="shape=image;aspect=fixed;image=data:image/png,iVBORw0KGgoAAAANSUhEUgAAAg4AAAFXCAYAAADK0sabAAAAAXNSR0IArs4c6QAAAARnQU1BAACxjwv8YQUAAAAJcEhZcwAAEOoAABDqAYLTCpgAAJuZSURBVHhe7b33lyRHte+r/+b+dNd76/Huue/C4QBHBw4cJJxAmIMAISQEEvISwkgIeeSQACEEQgZ5h+zIe+9HmtF4q3E9Pd60m+nuyRef6N41kVG7qiKqK7uruvde69tdFREZGRnbxDcjojIP2bR9sFi/dbBYtXmw4HMKKLthm54X4yNX95KNep6GlX2DxUYlXcNHWwaLtf16noblm4bUdA3US/1aXgzau8K1W8vTsMbVvc71i5YXg36mT7Q8Dctd2dWJfYLeV2fonXak6p3r4zq1PA30Xy/qfdEG1ydReiPk6j3XJ9GnlhejHb1vrFDvWrqGtU4vSzfpeRpWZJTN1XuOT+KPVeo91Sdz9b7UxW36XMuLsc6Vq0rv3t8T2wFy9E6bk/Xu+jlL7xk+iQ4Xuf5OjSVV6j3F3w/Ztnuw6N/pKncF+ZwCnGDLLj0vRp+rG8fR8jSgxK1Kuoa+HRMXoeVpWLtlSE3XQL3Ur+XFoL20W8vTQODZ7PpFy4tBP9PfWp4G2kH9Wl6MKvXO9aW2A/Sq3lc6h9ya2Cc4elV6R4/oU8uLQTnaouVpoB2p17jZ9V2u3rV0DeiGQK/laWCw0dI10OZkvbu+4IZIy9OQq3cCvZanAb1vqUjv9HVqn1Sqd1d3nr/r6Rpy9Z7jk/R1qk+i95Wuv1P9DBtJjcVV+PshO/dOfEA5fE4Bnb19j54XY4urGzav5WngAnco6RroODpFy9OwftuQmq6Beqlfy4tBe2m3lqcBQ2XQ0fJi0M/0t5anYZ1rB/VreTGq1DvXRzDR8jR0i94J8Dl6X+VsO7VPqtQ7ekSfWl4MyqXaCMjSu+s7+lDL05DjN+icAUfL08CgqqVryNK76wvuDLU8Dbl6Z5DU8jTIgKrlxcjVO32d6mf0XY7ec3TTn+3verqGXL3n+GSu3le7/k71M/Se7JOZese2uVYtTzBBHFyhrAHElU1ttCcOGc7uG62ka/ADSKLSwfrtGcTB1ZszgGQFEmesWQNIhm4qJQ4Zeuf6sgaQLtH75ky9ZxGHCvXuiUNiO7KJQ8V619I1eOLg7oa0PA3rM+rOGkAcqvT3HJ/M1nuGbujrZOKQqfcc3XjikOXverqGSolDpt6ziEOmT+bo3cfiFnVPz4xDDnFwA1/WAJJjrDbjUEKVes8eQLpE77kDiM04lGEzDvXI1XvWjEOFercZhzJsxuEgbKmiAag3ZwAx4lAG12dLFWVUqXcjDvWYE8TBla1K70YcyjDicBA249AA1JszgBhxKIPrM+JQRpV6N+JQjzlBHCrUuxGHMow4HITtcWgA6s0ZQLICiTPWrAEkQzeeOCQ6WTZxyNA715c1gHSJ3ufMHocM3dgehzKq9vccn6xS73Nmj0OibrKJQ6bebY9DAFuqqEcuE80xVptxqIfNOJThB5Cq9O76Los4ZPiNJw4241CCLVXUw2YcyqANOXo34hDBiEMZVeqd6zPiUEaVejfiUA8jDmXk6t2IQxlGHA6i+/Y40GglXUOVAwj15gwgWcTB1V3VANJVxCFDN0YcysjV+5whDjlLFRUOIF1DHNB7om56mjgk6gbMCeLg6k72yUy9JxEHjAml0Nl8TgGDE52t5cVgkOTxmFqeBgIDF6rlxaAzJGCmYO3WjCcIunqpX8uLQXtpt5anAePDYLW8GPQz/a3laYCkEYy1vBgEhar0zvVxnVqehq7Ru2tzjt55dG5qn+CQVekdPeLHWl4M9J5qI4B2QAi0vBjt6F1L14Bu4qfQblqzs1j1ap+KxS/p6RqWvdxXLHfQ8mKsdMipeyl1v6LnxaDuJRl1U5ZjtLwYK1wbaIuWp+HDFyb6RcuLwfWllgW5uqmy7hy95+iGvqbPtbwY1L3Q9XeqLqeq99Vvbi75UYikJ0cSJAkiOCSfU8BzrwkOcfqWDf3FljUbSti0akOxekk5rRk+Wq6na9i0cgJanoaPlunpGrLrzmj3Rldvn+sXLS9G/+oNxbqMurnGDSv0vBibXRtSywLaQXu0vBhcH9ep5WnoVb2vcrad2icbXV9reu/fuKXOl/Av/CxObwT8Fz/W8mJQTh4nnAJ5d4KWF4NH4UJetTwNPBdfS9fAHfCyTeW0D+5eXdzy/84zGHoeNytpVeHu/3y65EchUvy9o0sVgxf8shj46mdL2DuJOL0Rcsta3WVUXbeWrqHqdnRL3XuUtEZoVPfgtVfV+RL+hZ/F6Y0gMzBaXgzK4fxanoZG/q5huvc4LLhjZXHD/3jQYDBk4PZPPF7yoxDTvsdh6BcnFwOH/i+DwZCBwSsvqvOlniUOru4s4pBxjdoeByMOBkM+ZoY4uLJGHAyGzqAhccjwSSMOBoMhFTbjYDD0OGbVjIMtVRgMXQ8jDgZDj8OIQxqMOBgMnYEtVRgMPQ5bqkiDLVUYDJ2BzTgYDD0Om3FIgxEHg6EzMOJgMPQ4jDikwZYqDIbOwIiDwdDjMOKQBiMOBkNn0Bni4AplEQdX1oiDwdAZdGyPQ+Lgnk0cGvi7BtvjYDB0P6ZMHLib4NnUKycfI50CHhPLs/Hj9MGzjTgYDNm44qI6X8K/snzSlcWPtbwYlOOxslqeBt7HwcyAlheDgZ3HX2t5Gpa7urV0DTwme8nGctr8W6dOHN687MNir6t3sH+46Htzq1omF6sf2+DrW3jjiuKZk94qdq3Z68Fn8h/59ktF//zt/tzxsRpoF/XF2PbhLl+XdkyvI+xDLd/QPiAOoR+FSPH3Q2AWTC/yhc8poFLuWuL0Tsw4jL7wdHFg2xaP/ffcppbJwchvf16Mr/+oGF++tBg++UfFvuv/UBzYvKn2nTKcZ+z9d+uO1aAdD2rtdnmUCY/JRa3NDnzWyhhmD5hxiH0J/8LP4vRGwH/xYy0vBuV4Fr2Wp6GRv2vYsnNiNkPL08C7LbR0DbymnVf0h2kLbp86cVj/4uaiOFB42bd7f21wnwo2vrbF17fs3rXFzf/XI8Ud//qEB58Z6Hcu31OMjYwV7127VD0+xs4Ve3x9sRwYP+Drmo3kIexDLd/QPiAOoR+FwN+3t/D3rtrjwEB8YHOfNxZkfOUytVwORi79TXFgcLA4sHVLMXzGT4rBwz9VDB75hWLw6/9ZDHz+4540FCPDxfja1erxMfbfekNRjO6v1UcapKHYv9+ljxaj993hzxEfl4Namx34rJUxzB7YHoc0VLHHAZIwsnNfMTo4WgxtGSkOOAKx+I7VpTJyty93vjKDEN7th7MWpG9+d7uPYQx64YzD21cu9gM9Az5kZf/AqL+zDs+nQYjDqkfXF3d80pEQh9cuXODbvW/vaPH8Ge/UziOzEfHdOp/DvLD9/Od7mC/Hyp2/tFOuNZxBiWcHwhkSyoYzK5In/6WeZn3Icc3ab8jDrNrjMPrA3Y4tjBcHtm8rDgwNFQf27i3dcfs78XXuTtxB0hn4GcRHn3+qVm5s/js+DYw9/3SJOOy7/hpHTjYW48uWFKNPP1YUw8PeOIuxsVK9jRATB85b7N8XkIZP18rKuaQt0kZpM+2s1RukacQBUkWbpS6trbXrduekPt9X7hiZGeH8cjwIz2+YOczIHoeMwX0273FYfPtqTxZ2rd5brHxonQ8F2xfvKpWRQVsGsBfOetcP+IObh4vHvv+KH/QGt7g4MjlrASkY3z/uP3OMlAfvX7/cHxcKd9bh+TTEbQBhve9du6zYuXKvv5ZQhreNTAzKv/uw2LfH3dwEQjv739vu6+K/JzOBUJ7j3v/r8mJ8dLzYsWy3L7v07jX+Wj3Jcv3H4L13w5AnMS//en6x6Y2trnxQl/tIGxf+fYJUyLVIGfqea2nWh63ab8hDZ4hDl8w4MMOAjD7zuBv01nrLHH3ovlq+NqCOPvaQP2bsvbcmvjOQOxJQk31uUHf1MFAy0IcD/9ibr04WmpCw3kYoHf/Wa81Jw55d1DpROeLKMqCPXHlhHTGqXftTj9VdpycNq1d6UlUTrmnndn8eji9ft8vbscOfr3bd7ry+raG48kJmDDMHm3FIQxUzDpAEZMWD6/yg5+/go+WKVsTho+f6/CDKjMVzp7zlwWc5JhzgX/rle8WzP3vT5zMYL7x5ZXHb//dY7VyNIG0YHRrz5wUjrp2cl4H3lo896geDO/7tCQ9pw/i+8eLdPyzxSyIMxLvd3b2UAbd//PFa/dKeWv4nn/D1Pnnsa74u6RfpM2TDy/3F279f7JddaAfnGht2ccX14+sXLvD1MEuC7Fk36EmGXIu0hTa06sNW7TfkYdYQBwZQBlIGVAZWBlAkXK5oRRx8HbsnjHr0uSeLwW/+l/+PaMRh5JzTa/nsJ2AJY+C/Plk7nwY53g/iLE94OeBJSFhugpQ44jPZjn3XXjFBFjZuKIbPOmGCGEEkbr6+7trj6wxnYkYu+IWvb2zh+77+8eVL1OseWzDf58t11/rJHUd+DV/7bKndhumHEYc0dJo4MAgyGMqdMvsPGPwYwLiTlnKtiAN34ggzFjf9z4c9+t7a6tNi4sBnjuFYBsKp7nFgII0HT+74h3e4m4bJu3bOIYM/d/lCPFbNO7hEAnFy4aJ2XfSDkCeuZ9fKvZ6ELLhhRTHQ5+LUrv0ezDSseMgRA3cs55X9In1vb/P9yfFP/fj1CeIxuaQi18I55fyt+rBV+w15mDXEgZkFPJbp9YEvfjK4K99TjJw3cVfeijgwCPu7bDfADv/q1IljpB6FOIQDau4eB4R6R59zd/qjo44qDxb7/jJx9w/8DAEy7M69pb84sMc5hru+AwMDxcjF50wskzgPg2BIu2vXHl3n+IqDMzEDn/+Er3/k6ksmrsvVPTrvgfrrlvzJ65R+8OVoj8P+u2+ttdcwczDikIZOEwdZpgAMggyIMn2+56OB2vp5TBzecXfVDKIMXpCAOB+EG/s6SRy4e7/zU0/WwABAPm3dunBnsWe965O/r5i4Y9/qBtrJczAQsznz9Ysm9kUgY+4aOIZjb/1f83x9m9/Z5vOkT6iL+oVY7Fyx288u9L21rdi1aq8nA8wkMFvxwV+XF8v/+ZE/Plx+keuV69f6q1Uftmq/HGNIQ2eIgyuURRxc2U4TBxkci7HR0kALxl57yZfRiMPY269PHAZxiEhB6ZgOEwcG4X1/uqIY/Mqh7i5+8u5+/UfF8MnH+HLUp4rMMgih4Rca8992GQc8meDY+DrH3n/HH0pbpR3hdY0+Pa/ldUNIBo/8r2L0/jtd2QnHg9TYPoeZx4zsceiAv2volT0ODDaQg0bC4MgUPGVlUGNanu/rJu+qhThwp40I2XjmZxMbLpFOE4dwYA0hywXclXN3/vzp7/hBPT7Hzf/3I34JQohFeJ2AZRMIhCwvyH4PWcY5MEZMLjxBgEz4EO3S5Lzzr1vmSQTXTz9w7KJbV02U6R8uHv/hq+q1tOpDKdeq/YY0zIoZB+7U+WVDI2FwZUCWwVAGX9LIQ/xSxeXnT9xVj4/76X3qhnRg3R0nDtu2+iUH0uTuvnReGeyfe6oY/NYXD+KbDuyFcAM5Mwyy5MHxkAlfX0QcRp981NfllzkmiYlc1/hHa4qRqy5qed2kAc5NG/Zde+UEcQlmdAwzA5txSEMnZxxkoPVr8e4uNryLZ/qfwRGCQFkZ1LjDZVaC/4gQh1d+835tUB3evs/fqTOgIs2IA+fY7wb3Ta+3fnZEK+IAOYAkxG0Q4sDMAW0XUEYG/Ld+96G/cw/z2UuByHICAzbLFwjXCpEQkoCwrMCsAHsidk8u98gsjtS18uH1vox2La36sFn7ISxSjyENs4I4yH6A8Q3r3OB6WA0yuBX7Ror9N/7ZD9QM2JQ9MDhQHNi5Y2LgdQJxYDCeWNt34pcI3J0BmyOdtCIO3IUf2LTBkZir1TYK4uN9enDeAzu2+4F4/123+DqlHYKx996u1TWxXDEhskxBekwcWH5gGYJr5Zpr1+Xq33/Prep1+z0PXJNc53NPltrhN246zwzPa5gZGHFIQyeJw7oXJmYNGAwZFMM8Py3vhPV77n6fPuENf3crsuHVLX6QE+LA8WwqlEGUvB3LDw6OMXFg8GQQFWEgDc+voRVx+MfH5tWWGRDID3sAPAFy13rrv8yb+B4I7XztggXFLf/Po8WzJ0/cwYdCfRwn5xACJTMHsu8AYQZCyjEoefI1KfTLh7esrNWlXUurPmzWfvpT6jGkoeeJw/BJB2cNZKq+Bjeg+btyZ/1+8+EXPlHsv/d2V3Biqh1SMfbOm/6zJw7umMEjPucJiAh7DfyddQPiUBuUEZdOfqkNEVTi4DBy7hkT9bjBeGzxwmLwS58pLws4IX/kvLMOHuMGDE+MnITXHhMHrnvkt2cfbKcTjoNYcR6OCa+bPPopvG7yxz5kQ+VBidtjmBkYcUhDJ5cqbvs/j/vZBQJonMcgRR5T4gxKgM8yI+Gn89nVP5nPMQzckk8e9fKZuhgUSQNCUuQcQGtDjLA+LR/INUmdcg7SyQ/P6RG0J75GIMfF9Wv9ErdL2iugf+K8+JhmfUh+s/Yb8kDfhn4UIok48DQ2AgOPc+VzCijLk+fi9MF2ZhzcoMjau59l+MqhdfmD3/j8RJ4b+Px3N1BOTPu7NKb9v/bZUn7pGPD1/5wo587hzyXHT34vnZ/0yYG4EeqOl7ywHnf+UllpS3RMjSC4AR4SUavLESbfZofabECpnQ5BHuRrfOkiT1IgB+R5gsNGyIDg0Ee145X2GGYIV1xU50v4V65P4sdaXoyNbrDmCYxangYeId2XWDdEgFkBLU8Dj77W0jWsc/Uu31ROe/+29jdHGgxzFRCH0I9CrHY+2crfD+G59QQdHJLPKVi20QUe58Rx+oC9qyILow/d62coJpYL/k0tkwQ3+LPXwcs+Rxb6+4oDA0wVHijGPnjPyEGXY68jDrEv4V/4WZzeCPgvfqzlxcj196WuHZABLS8GJINn3Wt5Gnj3hJaugXfkfLi+nPZuB95VMdPg1wN7Nw01xIIblqvHGQztAuIQ+lGIFH/vmp9jdgP8nfuSRRMDr4aN61vugUiBnKdgKYElhz9cppbLgX+WQ7CUgfg9I8FMjKE7YUsVaej0zzG7BfzM8K5PP9kQt/5L6wdEGQw5mPJSBX+yiYMrOxuJg18O4KFI3z68AQ5ruZSRhPA832LJYQqzDQKt7d/4gl7W0FXo2M8xu4E4uLp74eeYBsNcxswQhwaBpOeJg8EwA5hVMw5GHAyGrocRB4Ohx2FLFWmYrUsVBsN0w4iDwdDjMOKQBiMOBkNn0Bni4AplEQdX1oiDwdAZdGyPQ+LgXilxcHXbUoXB0N2wGQeDocdhMw5pMOJgMHQGRhwMhh6HEYc02FKFwdAZGHEwGHocRhzSYMTBYOgMbI+DwdDj6Po9Dg38XYPtcTAYuh9TJg4wflg8j3PlcwpWTD6uNk4ftEdOGwz5uOKiOl/Cv/CzOL0R8F/8WMuLkevvPJ56veLvGnhUNu+f0PI0LMu4Rp6hv3hDOa1v7R7/FkeDwZCOvvnbS34UIsXfO7pUse+dN4vRpx4zGAwZGF7wfp0v+RmHjLvxubpUMTg0UoyPHTAYDBkYGx0v+VGIad/jsH94uChGRgwGQwZGhobrfMmIQz1U4jCyb/LNLCYmJqkyfuBAyY9CTPseh/2jY5PNMjExSZWR/aN1vuSJQ4ZPeuKQOLhnE4cG/q5huvc4GHEwMcmXzhCHTs04GHEwMcmWhsQhY1C1GYeZl5GRkeLKK68szjjjjGL37t3FunXrih/96Ec+jTzkww8/LG6++Wb/uZVox8fy9NNPF1/60pd8vSadFfSU27c5+p1JMeLQQFDgl7/85eKZZ57x3/kffkf4HH5vJtrxoRAozjzzzKZObtKeSN8CPqdKjn5nUow4pKHbicPw8HDxq1/9qvj+979f7Ny5s9i/f3/R19dXbN++vTjgAjUx6fOf/3zxhz/8YfKI5hIfr8lDDz1UfOxjHyvefffdyRSTTsmuXbuK9evXJ8fzXP3OpBhxaCA4Eg6FYyEDAwPeCPiPMKD8x3/8Ry2/lcTHx0KgIGAQOAggJp2T8fHxor+/34PPKZKr35kUIw5p6PRShRBSbggEcnepkdX4ZgThsxz78MMPl4gD8UJmDObPn+8HFWLSpz/96SQSHB4vg5ekcT7S77rrLiMOFcktt9xSsgn5/sgjj9R0IHoU0qDpV44Ly4uE+qSc2JOcE2l0vBx7/vnne5Af2mYzmTV7HMQpm3VQ6EBxB1OWY+TYZ599tkQcpDz/AYMK+fxPmSUIjxcJFfrSSy8ZcahIRLdiE6E9XHfddTUdiG4a6Td00rC8iOgYvPPOO/640A5DGwPoX0SOpT2cA3C+FOn6PQ45xMHV3Qt7HLCHyy+/vPg//+f/eDsRnHTSSV7PciMgJACJb0aIPWJn4NBDDy0++clP1o5ZvXp1cdhhh/mY8Prrr9fKgbDeRhIeT0yhXaecckrxL//yL74OzsU5+WzEofPCzEHYt/KdPhcdYD833XRTzTYEol9iBERC0imP3WF/sT4pd9ZZZ/nPcs5mx4t9fOITn/D4whe+UCxdutQf10pmxYwDAfZ73/terXOkg1AIEjsQgvNSjg6OgwD/P/e5z/nP4uRSnv/yWZAy2IfHIwwUoUI5H+c14tB5iYO42AOB81Of+lRNB9/5zne8LWn6XbFiRXH00UcX//t//+9a+mc/+9ka8eQ/3yXvqKOOKn74wx/WzomTn3766TUbA+hfyIeck/ZwDta59+7d6/Naic04pKGTSxVM/W/bts3vIwDYx6mnnurJ39q1a+tsDpHBAV0Tcy655BL/nThFHa+99pq/64ztFPtj2vvxxx/35S+66KJi8+bNLWfP4rj31FNPefujnbRX2kydMtCYdE4aEQf0h75Fn+eee66PD7F+sYHjjjuupi+OwVaIWwsXLqzT56JFi3yMknNSZ7PjxT6wOWxv06ZNfnkrRWYFceBiuWg6JnRAFBIyq3BQlkBNB9OJdOa3v/1t3/nUgfLIl4FeyvOf5QYUwHf+E0AarSGKhMej0BNOOMF/x1g4nxiNEYfOSxzEY4eRAMqAzZSwpt/HHnvM54u+sBPsheCPPuNBgE1nOLWcc8GCBf675Ms5sQOOF/sQJ0+xKREjDmmoao+DzBwSQ7Ar7Cu2OSQkDhCBY445xtsQsQuBKEIYYzuVmCDHp66Bx8f/+c9/9se/+OKL3rbA3Xff7dNkcDPpnDQiDq+++qr/vmXLFq//RvqFgIpd8f8rX/lK7eZk3rx5dfqESN5+++21c7Y6Xuwj5yZFZFbtcSAAMxX8xS9+0Qd5UUjsQIgEajqYTuQznS4sHuWSRjlEyjf63krC8qJQBgnajMRGZNI5iYN47DBaAI31K07KdB4OePjhh3siQPCHCMSDAHpFv3JOsTEcl+NDh8Ye5Hy0I5UwiMwq4uDq7pWliquuuqo49thj/Y2HEEHsCvuKbQ4RG0DXWj5+j/9LWhy34oGllcTHxwMZInYXppl0RhoRB/kuNtBIv6I/0mIQj1rps9XxsX3kyJSJQ7+7Q9jkHHKtc0g+p4Cyfe6YOH3fFJYqmJK54oorio8++sgP+txNSodoHSQDAR0snc1/EVGipMVltGOaSVhea09sRCadkzhIa/0v+hEnjPUrThqDgZ+BI6wfoV7qlzSpL4bMcsTny5GhfaN1voR/5fokfqzlxYBkMABreRrWuLt8yICWF4N9Geu26XkaVru6tXQN6129KzaX0/YMtUccIItHHHFEjXzKDAJ2hX2JzQkxhGhccMEFNR0PDQ0VP//5zz35ZMoZkZnPRnYqMUkGllYSH3///ff745kdoz2QW5n5FLs36ZzEA3v8XWykkX75Ncx3v/vd2iwkNifg2Fb6bHW8FgdTBeIQ+lGIFH8/BBa/yTEMnjHP5xSs7Z+4Y4nT9+1vjzgwfUwAlrs1ArE244Bj4+B0MERDOvjNN9/0n2XaGCXI1LME8jiwx99bSVheFEqQIFggsl7VjhJNmos4aKOAjIh+xKlj/YqTylKFYOPGjcWePXtaDgJiY7JUEQJ7i8+XI0MjjjhEvoR/4WdxeiPgv/ixlheDckz5a3ka1rh2bFb8XcNGN7jzng0tTwPvn9DSNfD8fE8cgrQ9g+0RB7EhmTXi9/ronzTyhBgQh0iTGSbRMXGKKWa+yywUs1l8b0UcPvOZz/j41WrzbHw8s2HMisVtpk6xe5POSbvEQfQL4WTvnegLGwGie02fIXFg9rzZ8VocTJXxcUccAj8KkeLvXbFUIUE3dkDpEBmocRI6N3YYmVaW/NjJw3PE3zknO1mpo5mEx4drUTL1LWtP7SjRpLlMhTiIfvmVBLNYoi/BP/7xD3UQ4Fzf+ta3aueUpSjJFzDdPVXiYHsc0kDA6tQeB/ZVoXt0Bi688MLaDQz/sYn333/f2wz56P7OO+8s6Ri9y14agD2Gy1uxnUqcoizp5DeT+HjijtixtAn747PYvUnnJJc4aPqlDLZFmoCbE+wv1ie2JDYWnqPR8VocTJWZ2ePgynaSOEAM+FmKdAwb2egsphK5o6OD5eeVgLLhUgVOTicS6ElDEZIvTh4HdtielBdHbybx8Uxvhgrlp3vU144STZqLOGijgIyIfsThYv1u3bq1eOONN2pOCrAjdj8jDAI33nijT6cMRII7TjknNrh8+fJanYDPtAX7i+0jRzr2c8xuIA6u7l7Y44DgwyyNAnSMDfBZNpoRnDds2ODTeBDT4KA7f5CPhHUQx7AzymIvcjxp2AjgM2VJJ7+ZxMeHadImZmD5TNtNOivYRNi38Xd0jA5a6VeOE8jx/JKLOMZNMTOc2BI/5yaOSBxDGh2v2UeqzIrNkWGHS8fQWWHnkyb5lGV6OexEUSJpHCf54uTi4PI9LC+O3kzi45FQoThwaEQmnRPRlehJcxjRj2YP8XGis/B47j75SS1kUOpmaSwklWGdYb2IZh+pYjMOaeg0cTAxmUlh3wI3KR//+Mf9LPlXv/pVv8zBDQkznFXKrPpVhYnJTMl9993nmT6OiwPjyDj0ZZddViMHVYkRhzR0cqlipgWC+/vf/97bmoYf//jHLfdAmPS2cCPDsoPMYAKIxNtvv115zDHi0AHBQXHUr33taypwcLmTNZmdwkxBvJYYLmVUKUYc0jCbiIPMsrKBTkM422oye4Wl1pnQe2eIgyuURRxc2dlEHGQKO1RgCFt+mBuyY8eOGdF7x/Y4JA7u2cShgb9rsNdqm5h0v9iMg4lJj4vNOKTBiIOJSWfEiIOJSY+LEYc0aEsVA0NDfpnJYDBkYGCg5Echpp04DA4N+wenGAyGdAw6xL5kxKEeOnEYLvbt22cwGDLAnr3Qj0JM+x6HIefEbPYwGAzpgHDHvuSJQ4ZPeuKQOLh74pAxuHf7Hgf2oRgMhnTwq43Qj0IkEQee/87jalf0TTwLPgXLN004cJzOM/e1RhoMhsbYO7y/zpfwL/wsTm8E/Bc/1vJi5Pr7MtcOHiOt5cXgOfcrN+t5GpZu1NM1rHL1Lt5QTtsxYHscTExyZWz8QMmPQqT4u+1xMDGZYbE9DmnQlipsc6SJSb7Y5kgTkx4XIw5pqPpXFTzP5eyzz0568BJPpr3ooos68pCmuC4er3/11Vfbs2PaEPqMvlu0aJH/nqPTTknchm6UWfschxznoeytt946+W1qgrLD81Jvp+qea9INATHWZzeKPcchDVUTB9478r3vfc//byU8hvykk05KKttK4rrY9c4jh1nGMskT9gzxDht51wPP6OENuNP5MK24Dd0os3bGgZcFpb4wirLyDvSpCsoOz8uLa4BJvsQBESLR398/rQEx1mc3is04pKGKpYrbbrut+PrXv+5x7bXXlogDhPcnP/lJLZ/PpGHHvABNXncsd5b8l7Ig5Y5Tq+u5554rrrnmGk92Od/FF19cvPbaa7V6aXPYtl/84he+HoRjOFbKSj1zQbhOnvL7qU99yr88in6kn2TGgT6SvpS+o3940Bt9yHfRsQh1SF+m5GltQGLbCHWGPufNm1fTm9QV2qbUQ7pmD7kya4gDnRgqj9fFhgG/UcfToTzf+9BDDy05STOFNxLOgbJROsZG/ShFFJOjYCS8JtCOgntVuPZmAZHP0rfSP1JG6y+OkX4Hoa6RsB6xDU2fcVkg5yE/J7A0uoZcMeKQhk4TB/T2m9/8pliyZInHOeec420V4oCOf/SjHxVPPPGE/07+6aefXlx++eX+J7R8J/+ll17yMQq980plXsVNedJ5ZHmruDM2NlZXV3jTRF089v7666+v1fvNb36zOOOMM/zbFTmW18Y//fTTtUHrrrvu8mUBcXSuzJhyQ0J/n3zyycWjjz7q/Zk+EDLIjczRRx/tZ0F5wRS6ot+PPfbY4s033/RlLrnkEv+WXAT/5jH09DF52AL9LrHlxBNPrOlb8njZYdwGynJedEdZjuHlebfccos/Dze9//3f/1289957tTZgh7w/h+/Uw7nkerAHroF2AWxYYliqzAriQIcwyHDxdAyB+8gjj6w5T7OO59gbbrihOP/882t3s80U3kw4F0pC6RyHU6NUmc3IUbBcEw5NniiYts0FaRUQ+QzZe/nll33/oEMGeV4ry3eOkRf9tAqI9KkMAORhR+TjxLE+w8GCNPJpBzaWG1jkGkT/tJnjqStHjDikoZNLFfgn9vXCCy/4mAHwa/wbXTK1zSv9sVWEfOxP7DecTcM+L730Uu/r2BjC8din2EoziWfmYuJAmxYsWODzWMaAwGDHnEvahd9AJDhu27ZtvizCo9OJfa0IzGwR+ow+kGUC+i8kDowbonP6j5fY4dOylEE8Ij7Qh9wsYBOURaib8uiZ+sM355LHkgh1xm3gO7Yk55DzhuNK3AbekEl9COMa4wpv3xV7kHYBrgdbbjW+hTIzxMGV7SRx4F3kKEE6igdU3HzzzTXnAXQa6Qgd/7vf/a7W8TiafKbzUDhKCxVOeRTeSuKpbeoNFcwdqbRDU/AJJ5zg28q5OKfUQ1uoW+6G54I0C4h8ZkBncEcWL17s76Q++OAD/50AyZ0Ug7cERO78RdasWeMDIu8YCetF6F8hkbE+WXYKl0v4jA4pJ4Hl+eef9/liZ7HOCSwMFnIN0i7KUBYSlCMd2+PQDcTB1d0LexzwUQYUCKIIgwX+K/aKYEu//OUvi2984xt+ZlNsKbRtbBiCefjhh/tyAspL7GgmzfyEtHD5hDTy3njjDf8doTzneeyxx/zsGjNf0oYjjjjC36GG1zSbRfoHf0bC/hP/ljyEfoP4i0i8WL58ue+3r3zlKyWdcqNAf6Nz4hP9S3p4sxC3QYRY9dOf/rRWTziuhHbCcdTNzBYS2gfARkNyiA1zjdh0qsyKGQcMPuwoBMcQ5xFp1PHiOAid10zhrUQMR84bKjX8jDRTMHcAnDNsA2364Q9/6MvNBWkWEMPPSOwQofO1CogQNwI3+dgHdiIS61OEWQqp5+Mf/7gvlxNY5BqY2RASglBWiEWq2IxDGjq5VIHdhAMyEtqrEAbsg5mDVatWeUIoug/Lit088sgjvlyIlP1RzfwkbmfoFyKUx075D5GFhIdtCG+6ZrvE/RP2XyP/pt9ExL+ZkeTO/sUXXyz1JcA28HluOvjObDekUWJP3AYZt4j/jz/+eO0YGUv4L58RaQP1IKF9AD6TJhJeY6rMCuIQOopI2HmtOl4cB6Hzmim8lcRKC5UafkaaKZhytDFuA9fCnexckGYBMdY5ZUKHIJ18+piyzQIi/Um/ks80LnZC0EffsY6EMPzsZz8r5s+f7xHPOPBZBD1yfpGwvtDuROLrShEjDmnoJHGAoKJrZrREsCeWmrBFZkG5KcCmJG6Eug1tmxsHykJw25FmfkJaKnHgZgsCLbN4c1Hi/gn7L8e/uRmJ7aORQA4l9jz55JN1bSCNmUhiFnkI55XYEX5GpA1SNrQPgI2GswuydB/OQrSSWbFUoRk8TiidJx2/cuXK2t192NniOIgWEHIkVlp4nvAz0kzB7dx5zjZpFhDDzwhlKMsxCOnk08epAZG7gM2bN3sygA0Q/EMdoQv2vnBnyJovhCMMJuFnEfStBRa5hljHzDTFsxCtxJYq0tDJpQp0z0wCS1HoD1xxxRW1zZHoObQ5BoYvfOELNd2Hto2uWd466qijPIFFqA/bSdnT1MxPSEslDjJ9/o9//GMyZ6LdQqLngsT9E/Zfjn8PDAx4+zjttNNqfcd/+pI+jfuVPQzHHHOMT4/bEMcJbKLVUoXoHwntA2CjN910k8+jTmyYtubckE6ZOODkBAYeFcvnFFCWQBWnj+xvjziIwT/zzDP+O86HE0rntep4cRxEAkIjhbeSWGmhUsPPSDMFcw0EHp5dIEK7OV6uY7ZLs4AYfkYoQ1mOQUgnnz5uFRDjfpU9M0wlhjqSOuXOkPJsuvzEJz7hy+UEFrkGllDYg4GgczYpyT6NVBkaGa3zJfwr1yfxYy0vBuV47LSWp2F1/wTR0PJiEHQY3LU8Datc3Vq6Bh6Du7yvnLZ7sP0peGwHkifLXwRjZiuxRW5QCMgsVbBRm8/33nuvXw5jkCDOQDSY3cL+KM++LL5TnvrYtCgxqJnEdYW+QVtSiQMEhvXu448/3rcBEAfxlZxBpZeFPqDfWTq4/fbbS/2X69/oLrQB/j/11FNe17F9oDvymAGN28AeKOrEJijLzcXf/vY3ryfOQRuASNgGJIyjABvl3NRFndhwip2FMj7ubrICPwqR4u+HbNk1UQhn53MKJOjE6fvanHEQg2f6mM4488wzfUCXzmvV8TgG080ykDRTeCthsGHA52d3DAShUnMUjKNypwwBog2Au12CDtc7F6RZQAw/I/RZI+LQKiDG9sE+EvqevFCf9D31iU4oz9IXyyCsX7dDHKj73HPP9fWFwSNHeMdL7Ev4F9PycXoj4L/4sZYXg3IMwlqeBvydu30tL8YmRxx4lr2Wp2GNC1JaugaWNXgPRpi2Z2hqa/fMUDKTCSCozESJ/sI8ZrIGB11frF1bly9Bm/9SPkxPkbAuwPmwe84Vtok08sJYRnmOR7B5yksbZGZtLonogT4J+0/6Juw7yoR6Ik/6HhG9COJjG+WFbRCdSTk5p+iG70AkbgNlNm3a5K+BOAkRYlY1rC9XmHEI/ShEir93xR4HRJTKAMH/HTt21DpPOp48QEft3r271vF0KA4t3xHKSHkQKrWZSDskQIRKDT8jzRSMSLukDWHZuSKiB/QFpA/Czwh9Rd+J/kTnojfRi/RlqGspK3lhcI/1GeuEwYBjaaeUDW2FdNoqEuoc4sCvZPiFh9SXameh2B6HNHRyj4OJSS+KEAf+T0U6s8fBFcoiDq5sp4mDiUmvSTxr0q50bI9D4uBuexymT5i15NdC/NRYA/YT3vGamDST7iIOXTDjMB3C1LbmvAKmpefK/gOTqUvlxCFjUJ0zMw49RhziGa4Y4cyZiUkrwZ6wGZlRbVeMOGQI08g82KMR+vr6alPnJiathCWMTtiMEYc02FKFiUlnxIiDiUmPixGHNKjEYXhfMT4+bjAYMjA6NlbyoxAzsMdh1N99GQyGdOzr9j0ODfxdw3Tvcdg7MFjbeGswGNLAvprQj0JM+4zD3oEBtZEGg6ExBtzgF/uSJw4Zg+rcnXEY8XsEDAZDOkbdTX7oRyGmnTiM7Nvv3/BlMBjSMTyyr86XjDjUw/Y4mJh0RmyPg4lJj4vtcUiDEQcTk87IlIkDBViXJDjwOQVUTPCJ0404mJjkC8Qh9iX8Sxw4BfgvfqzlxWBwh2hoeRoa+bsGnioHKdHyNPCUSS1dw2ZXL0+1C9PYHDlb5I477vBoJaxP//rXv/Y/L9eE92b88Y9/tJ+Wd1hy9MOTi3mGR7cKxCH0oxCQ+e0t/P0QggIbjniUK59TsKJvsFjnKo/Th9t8V4WJyVyWgZHROl/Cv/CzOL0R8F/8WMuLkevvvB+CAV7Li8HAzvsntDwNyzbp6Rp4PPWSjeW0nQOzhzjEj7RvJKxR83bERk8p7dTzRUzKwqPtQSsJXz3QrTI2fqDkRyFS/N2WKhSBKcLoUxhjq7KpLNUkXXL0w13Zn/70p66++7KlijR0eqkCv+RdJQR5gD1hJ9jLt7/9bY/Ydl544YVanhwjgq1pedyBUs8DDzxQqpN8ypF2zjnn+Bf5pRAH6qO8zDjIdzlv+J4fk85JGMv5jz6l3wH6QBe8M+nf/u3f/DuSNB2BcEyIbQ6bDONbM5ukzN///nePuN5mYnscKpCcx3ryBC/Yf6MneaXeRZikS6s+DyV+EVk3ihGHNGg/x5wKccAvTzzxRP8K/lWrVvngTtqdd95ZLFu2zIM3D/KGQ4RBgIH5nXfe8Xnz5s0rfv7zn/vjyOOFZ7zMTfJ4UyqBnTtQ8gj45PFOFp7+Rz7lSHviiSeKT3/600mxInwZmwxUvDmWel5++WX/FFwjDp2XMJbzn7dUvvbaa77fr7/++uKMM87wuuFtubxiW96aKjpCx5RdsGCBJ4mQUAT7Ql+kgwsuuKD2encIQjObpAz6vvvuu31eyowI0hni4AplEQdXtpPEgY7FqR588MHiO9/5jv/MoLBkyRL/XcD3UOhMyeMNhdQjglK0PBz5xhtv9CCPOpCwrr/85S/JxIH6YJLCDvlPcJHzpt5FmKRL2Ofo9bLLLvNOKfoTfWMvvLHyM5/5jGfwYgOhbYR3hkisP2xS7BGhDtLleLEfhM+0g+PjeptJQ+KQ4ZOeOCQO7pUSB1d3FnHIIEdVEIdLL73UT/0jixYt8gF8y5Yt/jsCoeBtvbzI7PLLLy9uueWWWnl5Wyb/ySOmiJ2QdtFFF/nyMtC/9NJLPg/hLaq84ZU8hPLnnXdeUqwIiQODFJ8hIgjnpx1GHDov6Eb0w3/0K/rGdhgzuKFBP/i/jB/PPvustzN0jPAAprffftvrCBKJffFdHs5E+cMOO8wf38wmiS+UgcBQLkdmxYwDHS2MfOnSpb4z6QgYHB1KGp15+umn14IxwZ9B+YMPPvD5OOg111zjFUker0qWY8mj8wn6IUMjD4UQ8KUuwKAkjK+VUEZIBm3j1c+PPvqor5tBhEErJRiYpEvY59gOr9GGpYv+zjrrrOK2227zjsrAz+vaeaQ4AR/bwOHFbtCV3DUCPhN4yeNu4rvf/W4tCJPPZ/RKPnWEdw7omXPJHawElVZiMw5p6PRSRTgQII899pj3V6Z8hRgSK5hy5k6QGMXr2mPhWRxa3r333uvrDwd6EW5OuHNkoBCR8q0krI82Y+8yKCG0Q2zWpHMS2kv4GYljUkgc0PVnP/vZmk2Br3/96z5uQfwoG751mXeYQAY4vplNkh+eN0dmDXEIGTkBFwZPgBZ2TxoEABDAIQaQCXE83qUP4cCJyQuPhRzgXJSng0OGRl0/+clPanUBCIcorpWEipvKXYRJuoR9LrYT6k+IIDYTLlXIwC/sHkFH3A1wPE6MnQi753hIhhxPmUZ3DtSNnsM72FQx4pCGqokDmwohfkIqBZDA/v7+usFfJBzIQ6E+6tfy43MjUr6VhPVpGyFDmzfpnIQ6i/UXx6SQOFCOcSC0KcBs1cqVK31ZjhEJ62pmk8SnsGyOzCriII4lDP6rX/2qH8AFTN+gBKaD6CyYWSxaHgEedo8S4o7WysP+eBVuijLC+qZyF2GSLmGfa0E5DKZhEEXXMHXYfmhXn/vc5/wxsHtNf3I8+qVseKzcOdCOOJikyqwiDq7uXlqqCPXFnTpxh/gTC2QRUomNxNIoD3uhfs1GsSshtyJSvpWE9Wltph1GHDovob2En5E4JoXEQdO1CGMNZYlNIsxYssTK8c1sEgnPmyMzQxxc2SqJg3xn1yrr1CG4G2zWWY3yULJGHLTyseKbSXh8bEwI54zTTKYmYZ/HtoM0Ig6UZ6qPmYPYrpix0nQV1kUeASA+ljsHZhk0/adIx/Y4GHHIklhf2BIEgGUuEfTLnhYCN3bDbCazSwhLkyxrsr+AvB/84Ae1pVSOw9bmz5+v2ijHMCDIzCflIaUp9hPWJ23m/Ajnpx1GHDovob3EthPHpHD8EF3zfA0RljevvfZaTzqZXeeGBWIB+C57HJrZJHYYnjdHZuWMQzN2j8DSKA8zi0XLQxkEfI04aOVhf0cffXSSMsL6pnIXYZIuYZ/HtoM0Ig7N7AaB3Wv6k+Ob3TkgcTBJFVuqSEPVSxXMNDENzNKlzCixz2rhwoWeGBKXWCr91re+VZtt4qdz2AN57JeR2axjjz22ePHFF32eZqPU9+qrr/pylGewYH9Niv2E9UmbITTUc/bZZxdXXnmlEYcKJLSX2HbCmIRu0Se2AEEQXUPo0BG4+OKL/YZb9AexQF/yc0v2WPGLG+JVK5sMz5sjs5I40FnC4Ddu3OjTcEAYGs5Ih+HAKEeCOCyMoE5d5LHrVO4MYHo4KAqKOzquC/A7aJkqaiVhfdTPedq5izBJl7DPc4iD6Dq0Df5jN+hq8+bNXn9yZ4Dtcdcox4t+wzsH7BG7xG7iYJIqRhzS0GniwL4FEAo2QkDn55WAz6SJYG+SByAMInyWdJY+5bf2UmdYFiGfcpTH1vr6+urao0lcX9hm/vOTPOojjpp0TkJ7iW0HXdL3onPy0Af2goS6Fn2LfvjPd8mDFIT7HprZZHzeVJmVSxUITsFDLb7xjW/4ne0EcB5uIZ3Jf5g16eQfd9xxntXRoeTJnQF5sHF2RZMXDjoiYV1AfqoZlmkkYX3UTxtoC+eFjDBzYsShsxL2uWY7IXEQMoAj4pyUZwOj2Ab/uWvE3kR/EFby5O4N4NxxPuDOgXaQ33HikOGTXUMcXN29slRhYjLTEt64iMiNLPGmKpkycSCAwPpX908EkxRQlmASp4+0+chpOgjWFDNygrywLMD3UITVgZDhI+GxKQwtrGv79u3JLC6uj//t3EWYpEvY55rtoHth9JIf2keoaxAeG+qP4+6///4SGQjzQXjnQL3t6HpwZLTOl/CvXJ/Ej7W8GJTj8c1anoZVmx0xUfxdA4+q5bHTWp4GHn2tpWtgtoFHVIdpuwdnF3GQmVUhphrCQcakt4X4xI3L1772tZp+iTdVjxnj4wdKfhQixd8PkTsEno3P5xTA+vt31afva3PGwcSkG4SAzM+mwmWMU045xS9HVCnD+0brfAn/ws/i9EbAf/FjLS8G5RjgtTwNjfxdA0GFOxYtTwMkQ0vX4MmUC2ph2t5Z9JIrBBLKBkchphriGyyT3hb0Gep3Om40mXEI/SgE/s7L6rQ8QVfscehW4W6SgSNk+yHCQcak9wUHZhmDDUrol/+yjFGl2B6HNHR6j4OJyVyVzuxxcIVmco9Dt0o8LR1D9jWYzB5ptoxRlXRsj0Pi4J5NHBr4uwbuRmyPg4lJd8us+FWFiclcFptxSINGHAaGhv0mWIPBkA5uikM/CjHtxGHYsX/5SaPBYEgDfhP7khGHemhLFQODQ35WyGAwpGPIEe7Qj0JMO3EYHBoqBgYGDAZDBvCb2JeMONRD3eMwPOI3FBoMhnSMjY2X/CjEtO9x2Ld/1K/5GwyGdIzs21/nS544ZPikJw6Jg7snDhmDu+1xMDGZXWJ7HExMelxsj0Ma1BkHIw4mJtlixMHEpMfFiEMaZoo43H333R7tCO8ZuO666/xelnaEZ4hM5XiT7hT02q5NhcLjAHiyLY8OyJE5RRzopN/+9rfeGduRqSprKgHEpDuFgExgbtemQmnXvow4pGGmlirafZQ4Er4rpR0JH59uMnsEvbZrU6HwlNzUNzmHMmXiQEDY4gIJhfmcgvWuLGuZcXrVxIFOit9LkCNTVdZUAohJdwoBmcDcrk2F0q59QRxiX8K/8LM4vRHwX/xYy4vBU+GEDKSgkb9r4AmTkBgtTwNPvNTSNUB21mwppw20+eTIl156qXQnzx0bNyXhnRskEEKJTnnYG/nEHxASTY457bTTanl8Jo0yvCHx3//935MfFic3R1LP1VdfXSIOYT7gOkRo78MPP9ywnUKSJc9mMmZG0NmXvvSl4j//8z9rOmimG/SKTsV+xAaeeuop/3rtT3/60/6dOzk3PxCH0I9C8FRZbi60PMEhPJN6vWPx8nzqFKzqm7hTiNPbeVeFdFjoALFT01F85+2EdOpNN91U6+CwQxE6WfKA3AFqymolYUDgPDh/ODCgKDmPBAuE9jB9hGIlP26nKF/ypZ0m0yfYwJ///Gcf2AnwYoONdCPpoa6wAXQPaci1LxHeVRH7Ev6Fn8XpjYD/4sdaXgzK8ehmLU/DSteOjYq/a1jnBnbeg6HlaVixSU/XsNbVuzQqv2ugvYHvww8/LE499dRi9+7d/vvTTz9d/Ou//mvxwQcf+O/oGn/nJWn4/JFHHlm8/PLL/s2F2AyvwKYMPn/CCSd4/ZMHAaVeBvwdO3YU9913X3HiiSf6h4mxEbaZUB8DAfGNungLK08vFeIQ57/++uv+XGK3tPOoo45S2ym2fvvtt/s8QIy66667/LEm0yfYBbpAl4xp6LaZbj766CP/Rt/nnnvOf+dlj5dccol/7fb7779fHH300cWTTz7pf6GVKryrIvSjECn+PuNLFfw0hA67/vrr/XcMnE7hjYbi1Dg5HUlHEchxaBwU0KF0JEJAlzw6H6clkBPcY2Vx3mYSB4R58+b5AUaIA3Uef/zxXmHkU47yHMfMyA9/+MPiwgsvVNspAYA6OZZ82h2SJ5PqBRtYuXKlD+zYCjbSTDcEfoIy78ZHz5QlMKP7LVu2ZNlXKLZUkYZO7nFAd7z9lNiCEH/QHYMyIjEHnePzF1xwQe0laeTxdtZ169b5tGXLltWCtsQzGeyxn9SlBuolvlEvQt1/+9vfasczcBBHIDMIbcNOIQ9cT7N2QlyoR45FeCoub++VGx6T6RNihowlrXSDTUFsGVO4Gf3pT3/q85EZW6rgz0wSBwQDp5MwfsgCnYiDkI7gzC+88EJtqYJOpDPFSQnsEA7eRImTSNBGEbyWG+dFQmW1Es6BQzKYIASGc845xx/PuQgqOLU4Kfk47a233tqyndxJQI7CYPPGG2/4+ukDk+kTAjL2JjbSSjfom/xrrrnGv349LJtjX6EYcUhDJ/c4oFd8mHeRoFd8kxjzu9/9zvuoxBwEnYZ6JUjHr+anjvPPP9+/cv3LX/5ybbDPIQ60hbjHA3pEmFWQ4yE3tJm2iyxfvtzfsBBzmrWTug899FD/nTbKq+GPOOKI7EHHZOoSxooU3cj4cthhh3myODo66tN7izi4sp0kDlu3bvUXz6APWcA5GGhDp4YEyIAsQR5BAbFjcnconf/JT36yLeKgOek999zjj4fcMCOCU4ci+a3aSd2f//zna0YCWKOCUXKsyfQJ+kAvoqsU3cD20T8zTsL8kY4Thwyf7Bri4OrOIg4Z5KjTmyMhBhA/dMjsIDGG78xCoUe5A+RzqNdwQBbCQKyBbCxYsMC/Flt8PYc4aLEsPD5uB0IbiJ3YZrN2UjcE45133vFtFDBzKjc/JtMnYaxI1Q3lP/axj/lxUQS9z9kZB9jTZZdd5u/Q6RQGYAgE64Q4NVPAlGk1IAthYKbgtdde82h3xiF2QkSO19qBNMsP20kZ7mBDIwEELGGSJtMj6AO9iK5SdCP6/cpXvlKbVkZy7CsUm3FIQ6d/jgkxQPcscbKejH6JOeiR2UTRNzoN9RoOyMQpZgkI+jI7Gfo6diWfWwk3IuESLUI8lOOJizJrKcKeDCG1zdqp1W0ycxLGihTdQCJYovj73//u9S3LS+h9zhIHBPaP0wKckVkI1hxxaln7bzYg0+ncLdx7772ebGhEIyewa07K3SjHM5VIsAiZHyL5zdrZKACYzIzExCFFN3feeae3Ne40WbKQsjn2FYoRhzR0mjjgx+j+i1/8Ym32EP0ffvjhpf1G6DTUazggYzdh0CfAt7tUAfEgrrBchjA4MEjI8WyS41z87BfZu3ev32PDTAfxrlk7pW5sV4S2Mv1NPSbTK2GsaKUb0TNLFLt27SrFnd4iDq5sp4kDa3XsIGb6F9IgTv2zn/3M711Amg3I5PFfBnM6lSnDdpcqxEnZuIKgSKawOZ7lC9msIsyPfKYrOVcr4hAHAIRA9Ze//MXIxDRLTBxa6QY9w/yxVxCW7ThxyPDJriEOru5eWarAj1kSZVZSYgw3LfzCBt2KoNNQr+GAzNozJJJfMzDbyfLmbbfd5n+FsWHDBl8vNhL+6qqR0J5Fixb5GVPqwi4vv/zyWtyAHMyfP7+WzzkhDTLT0aydUje2y7GAwYj6ZGbFZPoEO2O8gBxAOhvphnGQcQxiIXoO4w66Y7aesTMku61k1sw40Hk4BE5IZ4hT02GyWajZgEwZNrExmNPxlHv00Uf92hHOhYTKasWyaQOKYAc99REQzjjjjJpjEjAefPBBrzDyKffss8/6NalWxEHqlrYCrpuZEq7bZPokHDy422ymGwYC9Cx3eIC7ACGQOfYVyqyacegh4oAQjGWGEsF/+R6uLTP4C7FA4jLkyZIWS1fse1iyZInPp17KyvdWIuWpi//9/f2lDd9hPpDBBGnVzvhYPst1m0yvoBNsQnTQSDfoHf1rNiC6F/sLbaGVzBriQKdwt7dp06bJlKLYvn27T4s7THaxI2EZlMEMAet+AAcO65R8UUorCeujHgaOsH20Q85FudhBG7UTidsa5plMr6AbdBDbSawbSae8CDoW3Ut+qn2J2FJFGjq9VGFiMldl1hAHE5O5KkYc0tDrxIH9VzyspxF4RoiJyXRIZ4iDK5RFHFzZXiYOTCuzBKI5L7ANQybTKR3b45A4uFdKHFzdvbRUMZ3CjJbMYmkIZ7JMTKqUKROHtY7Br+JRrhsHCz6nYIkru9odE6cP7esN4sA+A6aUeVynBjaf5Ew1m5hMRfYMjdb5Ev6Fn8XpjYD/4sdaXgweT53l7xsmHiOt5cVY6epetknP07DI1a2la1ju6l24rpy2bY8tVZiY5MrY+IGSH4VYnODvh/DCG+4+YPJ8TgEHclcRp++zpQoTk2wZ2jda50v4F9PycXoj4L/4sZYXg3LrMv2du30tLwbPseclOVqeBgKUlq6BZQ2ISZi2Z8iIg4lJrjDjEPpRiBR/tz0OJiYzLLbHIQ3aHoe9Aw6Tv3U3GAzpCP0oxLTvcRgcHPK7zA0GQzoGh4bqfMkThwyfrHSPQwN/1zDdexwGhob98zUMBkM6Rkb2lfwoRDpx6NCMw9DwiN8/YDAY0oHfxL7kiUPGoDpXZxzYHHngwAGDwZABfl4e+lGIaScO+0dH1UYaDIbGGNm/v86XjDjUoxFxMDExyRN7joOJSY+L7XFIgxEHE5POiD3HwcSkx6Xrn+PQwN812HMcTEy6X2zGwcSkx8VmHNJgMw4mJp0RIw4mJj0uRhzSYMTBxKQzYsTBxKTHxYhDGmypwsSkMzJl4uDXJJ2zr3MOzOcUfOTK9rtj4nR7cqSJSb4M7xut8yX8Cz+L0xsB/8WPtbwYDOw83VHL09DI3zX0uboJPFqehrWOCGjpGiAwPIo7TNs7bMTBxCRXIA6hH4WQp0hreYJDuPOA9eOQfE7B6s0TThynj+w34mBikiuDI6N1vuQHSedncXoj4L/4sZYXg3I86lnL08C7LXiUtJYXY70LOjyyVsvTsLJPT9fAMgXvwQjTdg8acTAxyZXx8QMlPwqR4u+2VGFiMsNiSxVpsD0OJiadEdvjYGLS4zKriIOrO4s4ZFyj7XEwMemMzAxxcGWNOJiYdEYaEocMnzTiYGJikio242Bi0uNiSxVp0JYq9gwNFyP79qvYM6SnaxgY2e9IiJ4XY9hhz7Cep2HAlR3KqHtvRt2UTa2bcrRFy9OwezC9TyhHH2p5GnJ0Q92p7QBV6j1HN7l63+X6m/9afgzakVpW0zvHhn4UYtqJAw3cNzpawrALigPD5bRmYKOYlq6ButmRruVpGBwZU9M1UC/1a3kacto95OpmsNDyYlBuKKNu2kH9Wl4MX3dG/9GOnHbn6UZP19BNet/rbDu1Txrpnbvm2JeMONRDIw67HHYPDKnYtENP17Bl95DrFz0vxq69Q0XfTj1PQ/+uIdd/el6Mna7uzRl1U3ZHYt2Uoy1anoYN24aKrYl9Qt/Rh1qehhzd0IbUdoBe1ftHrr/5r+XHQO+pZWlDrPddDqEfhZj2pQoas3uwjO3u4jZsr09vBBSzS0nXQId4pSt5Gvp2DKvpGqjXK13Ji0F7vUFF6Y2Ase5A6UpejJ2uT30gUfI04DRbMBIlLwZt8Aal5GnwxqroWAN1e2dX8jRk6z1RNyBH77Q5R+/e2RP7pJHeNSf2xCHDJ7uGOLi6p3Opohn4yamWroE28xM0LS8GQTWn3fxElX7R8mLQzzmx2Os9UTe5eoek0edaXgz6Lkfv63P07uoGWp6GnLpz9Z5D5nP1vtr1d6qfofccn6QtWp6GaZ9x0LDF1c3Ps7Q8Db7RSroGFJ5q2GC9Z3R6XgzqTTYohyoDSY6x8nv+1OBQpd7bGUC6Qe9ZgcRhVX96n1Spdz+AJNZdKXFwfZel99wZh14kDq6vc/Se45Ne74m66SrikKN3/D1RN6BKvef4ZK7eKyUOGXrvHuLggquWp4FA0pPEIcNYcw0qx1i7ijjkGGuX6L1S4lCh3v0Aklh3TxOHjJuQniUOOXp3ZavSe1cRh4rq7lnikOOTmXo34hDBiEMZVeqd6zPiUEaVejfiUA8jDmXk6t2IQxlGHA5igji4QlkDiCub2ujKlyoSlQ6yiIOrN2cAyQokzlizBpAM3VRKHDL0zvVlDSBdovesQOJQ6VJFhm48cUhsRzZxqFjvWroGTxxylioy6s7Ve5X+nuOT2XrP0A19nUwcMvVuexzKQO89tceBjljnDGTl5GOkU8BjYmF1Wl4MnkW/eIOep2GFq5uGa3kxICQ8OlfL07Bs05CaroF6qV/L07DctVtL18DjgXFKLS8G/Ux/a3kaeCQvjwzV8mKg99SyIEfvXB/XqeVpyOm/btE7dvrh+vQ+qVLv+C/61PJi5Ord+2QX6B3dLNmo52lY7nxBS9eQpXfXF/SJlqcBcpml9xyfdGVT7S9X70tc3E71M2YnsvSeoRvv74m6ATl10+bK9J7hk+jwQ9ffqbqsUu8p/n4IzILpRb7wOQVUCnvV8mLAFDE+LU8Dz7qHSWl5MWDDTIdreRrWbeUnSXpeDOqlfi0vBu2l3Vqehj7X17BcLS8G/Ux/a3kaCFBMY2l5MarUO9fHdWp5GnpV7zhwap+gl6r0jh7Rp5YXg3KpNgKy9O76jtkMLU9Djt+gG5Y9tTwNBEwtXQNtTta76wuCtpanIVfvG7tE7/R1qp/Rd5XpPdvf9XQNuXrP8clcvUMwU/0MG0n2yTb8nWvV8gS2x6EBqJf6tbwYfurStVvL04CxZk1Zu/7W8jTYHod62B6HMiiXaiMgS++u73KmrHP8Bp3bHocyKFuV3m2PQxnoPccnc/VuexwCdNUeh+1zYI+Da0fqelY2ccjQO9eXNYB0id55NXWO3nt2j0OGbmyPQxlV+3uOT1apd/o6mThk6r2r9jgk6sYThwzd5Oq9p/Y48Cd7AHEVpzbaZhzqkctEc1iuzTjUw2YcyvADSFV6d32XRRwy/MYTB5txKMFmHOphMw5l0IYcvRtxiGDEoYwq9c71GXEoo0q9G3GohxGHMnL1bsShDCMOBzE9xCHD2X2jlXQNVQ4g1JszgGQRB1d3VQNIVxGHDN0YcSgjV+9zhjjkLFVUOIB0DXGoUO9GHMow4nAQvb/HIcugMoiDqztnAMkKJK7NWQNIhm7sOQ716BriUKHe/QCS2I5s4lCx3rV0DdnEIaPuXL1X6e85Ppmt9wzdzJk9Dql6xycr1LvtcQhgSxX1yGWiOcZqSxX1sBmHMrKJQ47eXd9lEYcMv/HEIeMmZE7MOLiyVendZhzKsBmHgzDi0ADUmzOAGHEog+sz4lBGlXo34lAPIw5l5OrdiEMZRhwOwvY4NAD15gwgWYHE1V3VANKzexy6RO9ZgcSh0qWKDL3PGeIwF/Y4ZOjG6z1RNz1NHBJ1A+YEcXB1J/tkpt6TiAOdRkDDIfmcAh4jLR3eCqyP8ghLLU8DjxbFSLS8GCiRwKPlaVjdP6Sma6DzqF/Li0F7abeWpwHDRvFaXgz6mf7W8jTwCFWenKblxcCYUsuCHL1zfVynlqchW++JugFZendtztE7j/hO7RNIXY7ec3ySsvixlhejHb0LkW6FdvSupWtANzypU8vTQCDW0jXQ5hy9czOk5WmoWu+p9uf1nqEb+jo1vlaq90x/z43FyXp3/Zyrd/pcy4uBDpe5cTJVl1XqnWts5e+HcHI6js7mcwp4hDSGouXFYKOKBNcUcAdHANTyYqB0AqCWp2Hl5iE1XQP1Ur+WF4P28ixwLU8DSscRtLwY9DNkQMvTgLOjeC0vBnpPLQtoR6reuT4x7hTQf72od96dkNon3MHl6B0/0/I04L/oU8uL0Y7eCT5aXgwGmly9a+ka0A3vttDyNOALWroG2pys90yfpK+r1Huq/eXqnXc+pPpZpXrH3xN1A3JjcZV6T/VJdLjE9XeqLqvUe4q/2x6HBhDGpeXF8EsVrt1angaUUtWUtbBcLS9G5UsVGXV3i95xihy92x6HMmyPQz1y9W57HMpghifP3/V0Dbl6z/HJXL3P/j0Ormxqo22PQz24U61qAOkq4pChm27Re1Ygcah0j0OGbrqGOLShdy1dAzrnDlHL09A1xCFT7zk+6fWeqJuuIg45esffE3UD5gRxcHXn+GR3EAdXcWqjjTjUw4hDPbpF71mBxME2R5bRjt61dA09SxxcX+foPccnvd4TddNVxCFDN0Yc6oHec3wyR+8+Freo25YqGiCbOGQYa65B5RirLVXUo2uIQ4V69wNIYt2VEgfXd1nEIcNvPHHIuAnpWeKQo3dXtiq921JFGV1FHHJ8MlPvRhwiGHEoo0q9c31GHMqoUu9GHOphxKGMXL0bcSjDiMNBTBAHVyhrAHFlUxvds0sVru6cASQrkLg2Zw0gGbqplDhk6J3ryxpAcvWeqBvQNcShQr174pDYjkqJQxt619I1eOLQDUsVDlX6e45PVql3+jqZOGTq3R45XQZ6r3SpIkM3Pha3qNv2ODQA9WYFkowglT2AZBhrz+5xcO3uBr3nDiA241CGPQCqHrl6z5pxQO+JuskmDt0045CoGzAnZhxc3ck+man37iEOtlRRQq5B5RirLVXUw4hDGT1NHDJuQuYEcXBlq9K7LVWU0VXEIccnM/VuxCGCEYcyqtQ712fEoYwq9W7EoR5GHMrI1bsRhzKMOBxE7+9xSFQ6WL89gzi4enMGkKxA4ow1awDJ0I3tcahHjt43Z+p9TuxxqFjvWroGTxxylioy6s4aQByq9Pccn8zWe4ZubI9DGdnEIVPvPbXHAXbGwM77JPicAh5FilFpeTHojEXr9TwNPJ6awU/Li8GjMXm8qJanYenGITVdA/VSv5anYalrt5augUfh8shQLS8G/Ux/a3kalm509Sfqskq9c31cp5anIaf/ukXv2OnCdel9UqXe0SP61PJi5Ord+2QX6B3dLN6g52nAF7R0DVl6d31Bn2h5GujrLL3n+KQrm2p/uXpf7OL26kRd8pjsLL1n6Mb7e6JuQE7d3icr1HuqT6LDha6/U3VZpd5T/N2WKhqAerPuQFy7tTwNuVNYOSzXlirqYUsVZWTPOOTo3fVd1oxDht/4GQcXBLU8DQQ4LV1D7p1n1oxDpt5tqaIMP+NQUd2Vzjhk6t32OATIXqrokgGEenMGECMOZXB9uQOIEYeDyNW7EYd6zAniUKHejTiUYcThIGyPQwNQb84AkhVInLFmDSAZurE9DvWwPQ5lZBOHivWupWvwxGGrnqfB9jiU4fWeoRv6Opk4ZOrd9jiUgd57ao8Df7IHEFdxaqNtqaIeuUw0x1htqaIeNuNQRjZxyNG767ss4pDhN5442IxDCbZUUQ+bcSiDNuTo3YhDBCMOZVSpd67PiEMZVerdiEM9jDiUkat3Iw5lGHE4iO7b40CjlXQNVQ4g1JszgGQRB1d3VQOI7XGohxGHMnIHkCy9u77L1buWrgGdZy1VVDiAdA1xQO+Juulp4pCoGzAniIOrO9knM/WeThxcoawBJKPRPUscXN05A0hWIHFtzhpAMnRjexzq0TXEoUK9VzmAVEoYM/yma4iDQ5X+nuOTVerd9jiUkU0cMvVuexwC2FJFPXKZaI6x2lJFPWzGoYxKiYPruyzikOE3njhk3ITMiRkHV7YqvdtSRRldNeOQ45OZejfiEMGIQxlV6p3rM+JQRpV6N+JQDyMOZeTq3YhDGUYcDsL2ODQA9eYMIFmBxNVd1QDSs3scukTvWYHEodKligy9dw1xaEPvWroGdD4n9jhk6MbrPVE3PU0cEnUD5gRxcHXn+GSO3n0sblH3IRgGjWBw53MKKEtDtLwYNILHY2p5Gni8KMrU8mJwt7J+ch0uBas2D6npGjA+6tfyYtBe2q3laeBxnhiglheDfuZxtVqeBh6dK2uTrQBrleCQAtqRqneuj+vU8jRk6z1RNyBL767NOXrnkcmpfYJecvSe65P4sZYXI1vv6KZCvWvpGtDNCmffWp4GfEFL10Cbc/ROn2h5GqrWe6r95epdHlOs5cWoVO+Z/p4bi5P17vo5V+/0uZYXAx0udf2dqstsvWfoJsXfD4HJeeJAxZPMrhV8o6lAyYuxwdXtiYOSpwHWxUN4tLwYkBJvUEqehlX9bgBR0jVQL/VreTForzfWKL0RmBVg45uWF4N+9sRBydPAHbA3EiUvBnpPLQs8cUjUO9fHdWp5GjxxUNI1dJPePXFI7BM/gGTo3Q8gSp4G/NcTByUvRjt696ROyYvhB5BMvWvpGtCNJw5KngZ8QUvXQJuT9Z7pk1XrPdX+cvVeIw5KXoxK9Y6/J+oG5MbiKvWe6pPo0BOHRF3mjMFV+LvtcWgA6s2ZsqbdWp4GmGJVU9Y4AvVreTEqX6rIqLtb9I7D5Ojd9jiUYXsc6pGrd+4QtTwNlK1K7121VFFR3bl6z/HJXL3P/j0Ormxqo22PQz1gilUNIF1FHDJ0k633RN2Ant3jkKGbriEObehdS9fgiYO7c9LyNHQNccjUe45Per0n6qariEOO3nP9PaPuXL1nEYdMvVe6xyFDNz4Wt6jbNkc2gBGHenQVcahI71mBxME2R5ZhD4CqB32do/ccn/R6T9RNVxGHHL3j74m6AXNixsHVneyTmXrvHuJgSxUl5BpUjrHaUkU9uoY4VKh3P4Ak1t3TxCHjJqRniUOO3l3ZqvRuSxVldBVxyPHJTL0bcYhgxKGMKvXO9RlxKKNKvRtxqIcRhzJy9W7EoQwjDgcxQRxcoawBxJVNbXTlSxWJSgdZxMHVmzOAZAUSZ6xZA0iGbiolDhl65/qyBpAu0XtWIHHoqj0Oie3IJg4V611L1+CJQ85SRUbduXqv0t9zfDJb7xm68TvxE8sT53P0bnscykDvtschwJzZ45DBcrMHkAxj7dk9Dq7d3aD33AHEZhzKsD0O9cjVe9aMQ4V6txmHMmzG4SBsqaIBqDdnAMkiDpkGlWOstlRRDyMOZeQOIFl6d31XKXHIuAmZE8TBla1K70YcyjDicBBGHBqAenMGECMOZXB9RhzKqFLvRhzqYcShjFy9G3Eow4jDQcytPQ7bM4iDqzdnAMkKJM5YswaQDN2sc+1IXc/KJg4Zeuf6sgaQLtE7T4PM0XvP7nHI0I3tcSijan/P8ckq9T5n9jgk6iabOGTqvaf2OMDOGNjl8aIpWL5pwqjk+84LzmmIHQ5bz9PzNGz7rZ6uYcf55xTbHbQ8Ddt+e66aroF6qV/L05DTbl+3kt4IOXVTNrVPaENe/+npGiqt29WbV3d1et+SYdu+7uD7lvkLSn4VAv/Cz7Q8Dfgvfqzlxcj192WuHTzTX8uLweNqV27W8zQs3aina1jt6l28Qc9bu3Z38cRpb5fw6Mnl783w2CkOp+p5MR535ea58lqeBspWWTfHaHkxcuum/+gXLS8G15daFmTphroTrxF0k95zdPOIa3dq+U7qfdXiHSVfSvH3jixVDHz+4waDIRcvPV/yqxD4ly1VlNFsqWLzmp3Fjf/zYYPBkImP3u0v+VLSjAN/pkwcDv1fBoMhFy88W/KrEEYc6tFsqaJv9c7ihv/xoMFgyMRH77RLHFyhLOLgyhpxMBimiFbEIcMnPXFIHNyziUPk780wU3scjDgYDO2hfeJgMw4Gw/TDZhw6tlRhxMFgaA9GHAyGXoIRByMOBsMMw4iDwdBLMOJgexwMhhnG9BEHV9aIg8EwRXR6j0M3EAdXt+1xMBh6BzbjYDD0EmzGwZYqDIYZhhEHg6GXYMTBiIPBMMOwpQqDoZdgSxW2VGEwzDDaIg44OYGBR8XyOQWUJVDJdzUoJmD41B8Xo08/Voy++KyORx8ohn70LfXYkQt+WYw+/2TTMvvvu9PXs+/qS9X8HEhddXBtoC3aMVNFrX8c+CzpXI+cv5PX1om6DOnY/dyzJb8KgX/l+iR+rOXFoByPndbyNKzunyAaWl4Mgg6Du5angXd9aOkaeAzu8r4GeSvaJw6PfvflYsVD64o1T2xUsfTutcX9hz+rHvvcqW8Xq+ZtaFhG6gZ8jvNz8eHNK9U20gbaoh0zVTTrn3f/sEQ9pteBLtFpp/TWzVj5Vn/Jl1L8/RBe7EIhnJ3PKZCgI9+1oJiCkUt/UxwYHCwayYGtW4rhM36iHrv/1huKYnR/0zLja1f7ekYfe0jNz4HUVSeuDbRFO2aqkP4BfCaNwf1A30Z/6rH33i6GfvK9uuNy0cl+MqRjz/PPlvwqBP7FtLyWpwH/xY+1vBiUYxDW8jTg79zta3kxeGsfz7LX8jSscUFKS9fAssaqzXre+pXtE4cXznq32D8w6n1Ak8HNw8Vj339FPfa9a5cW4/vHG5aRugGf4/xc7FyxZ7JVZaENtEU7Zqpo1j9D20aKd6+ZfeQBXaLTTumtm7HaEYfQl1L8fUb3OAx+50vF8LlnFiO/PbvY/+DdxYGREQ8++7S7by3G3nrd3Q0/U4PcFYfEYeyFpw/m33x9rf54QBw+9bhi9Kl5tbL777ujVrYVpC4Ga9pWw3lnFUPHfNOXYeZj9JF/1urnXJyTvNq5wWSZVuePiUMz0tDo2sLzam3hs0YcOFftOhzCfvX57nst79orJ64pOEd8PPmNZobmLGyPQ1fscbjrM08VT5/wZvHsyW8Vi25dXYyNjHnwmbR1z28u+t7aWqx+fKPHigcP3oWGxGH14xtqZWQw1YiDv4N3dUjZhTetrLWlFYQ4bHp9i2+b4JmfvVXcf9jEjMezp7xdrHp0vVq/nBssuWtN0vnlGsI+AbQB2fbhRN/H1wVe/c37tXrokzAvPC9tl/YIOFbSuR6uK6xHjpcyope4LkmXc3GcHB/mh+1bcveaOuJAeyTfl3HnkD7vZbS/x8EVyiIOrmwniEOIeJBkkBl76zU3Qo554xRhkGNwEuJQOKJRDA9N5hbFgZ3ba+QiHBA5ZuyD90r1HRgcqBsQG0EbXEP49r78/ER7RNy5xhd94Jcy5Pr8+SfLjL3yglqXIOyT0Yfua0oaGl0b5Gy8b5PP23/nzb48/33bXLrPj64tJCgi9KuQEZ/vvosc6NtQHNiz27eTNnO9Bzasm8ydFHfNo888XmuzwaHTexwSB3fb49AY8UDPYLV77d5JI56Q8dEDxZonN/nyQhzGhseK0cGDd+XciTPQxPUxQPW9tc3XIbJ/72jyXbsQh2X3rlXzae/2pc4Xx8v1yyAn7eH8tBlZ+/TEtTRCfA2SThsQ2kTd61/qL10XsnPlHn/N9AV9Ekp43SsfXl9rjwj9/toFHxRbPtjhr2fRbat8WYgKQn3UTRnatnf9YPHkj1/31xPWRZv639teIx7Sh5wf4bgPrl9eat/wzn2+DrlmzQ7Ip93SH72Knv5VRUwcBo/4XDH8q9OKkfN/4bH/1r/5wanYN1Ls++sfDhIHNwCOvfSsLzO+euWEQhfM93WGA2JtsHRlwvrGN/fV7pKbQeo6sGljMcoMxyT233u7z9/vBmkGR+qk7lp7Drig8s4bB4mDk7H5b/v8oZ9+v+48IWrHuHYf2LbVH4vI9QlaXRsExR/32ku+PMf775PEJewnCND4siX+u7Rz/4P3TMwGuTr3/fHyWr6cb+zdt/z5RXe12aAt/T5fMHz2SaV2z3nYjEPXPQAqHiQZEJ89yd1hu4EDrH5yY3Fg7ECxd8OgzxPiQBp5lNmxzMUpJ5vf3lZXHwMUAxllKDvfHT+ya3+xd+Ng8eh/t15Ll0FvjxvsVj+2oQa5+97wcr8fZOP6GeQYpKU9iJ+1cGUePOKFuvOEkGNoN4O4nJM2IAzUt3/88eKp49/w9ZXOOzJWvHn5hzWSIe0SzJucCeC6wj70cP1OHy++fbXPoz/pIxngpe5Vri1cM+3gGrlWzk0bqIdzkk/fyLmQgb4hn//m7xbWyIi0T/QsehM9yzGCJ455rdRXvYhZRRzCPAbnsfffnbhTn9xTUBuc+vuKoWMmpsBHH7p3YgBzd9J+AAwGRAZNhDtlBvxafZNEJDyfBqkrFtLJrw3Gb7ziSQ9p+27+y8SA69qz7+/XTlyf+77vuqtLdTdCSDa4LgZyXx+zCb+/pFau1bVxPo4b/2iNJxK0J2xH2E8Qg2LItdORhJHLfuvz/azEiqUTJOitV32eP95dn2+nK+fTJnU3cuEviwO7dvp2CsHad9NEWUMAIw5d93PMeKCXdAas5Q+smxjg3CAkexpqA8rGIT/IUVYGOsjF21cuLtX30bN93tcY/Bh8N7251Q90MgjK+RpBBr1YSJdBlbrembyTZ0BnqQXh3HJ9lHnj0oV19WuQYzSBfMTEAxIj10Xf0Eeci3PKdYNwGYNBn37lOsijr4VIvXreB8Xo0Jjvz3f/uLRWD3VDGhj06e8FN6zw5ALhmrl2jqcvOEbInvShzLRAUITkSL+x0XRkx76a3mrf947W2i9lex2zijgw8I8+cn8x+uwTxejjD9fuouuIwyRJoI5a2uSGyRJxeM/dFWviBsNRd0cdtyeG1CV34fFd9NiHH/h8ziXH1K7JtYdZgfD6pEwzyPGeNLz4jJ+hGHv7DX8e2iMzJa2urbZc4QiBJ1fuvyxTcHyJOFzzu+LA8HDdplM5x9gH79ZdB+UoL2kyWyQzFYgnNU6foiuDgxGHricO3FWufGS9n4Z/95rFtTvRmDjIoEQdkkYZZhjC+ja+NrEvIBYGTZmKbwYZ9GS2ILzzZZp+2A2oci45Ru72OXd8fWHdjSDHMLAuum116bxCGrj2JXeu8X217P6PajMOQhzu+venimdOfLPWfwgzFjJTQj3Uxx0/IrMbkAuOZTmBNmx+Z5uvExIEmdi1aq8nEQzqDO6b351YQg2XcqT9ojPpQymj9Qnlwj0OMqPC9dMPCOflmkXvvYpZtcehdufr7ly5g2UjokYcKENZ6uDOlsFyfMM6P3iFA+Loc0/6zzK9HqLVkgEI69Lya/UvW1IbHCnrlxBce/b94bK6AbcVan3iBnIGdJ82eXdPvdKWlGvzyxWub/ySBzMHwf6K8NqGf3VKcWDHDj9jwfIL+RAUlj38OV96biI/OH9tmSa6NojJ8G/OdLqaJH2BrgwOvbLHIfL3ZphtexxkGpxBjMGDwV2bcaA8a+3UIcfsXjNQvHb+xPp7rb5H13tfi6fsw0G4GeJBLwTt45wMupLPoCbT8Jw7vr64Dg0px8g+AxnA5S5eiIOUoz3kyQDM4Bsu0bB0QV/IxktmEEiXGQn2kUAYmMGATPhZjUmSwfVL/3LNMqDTF5ShbygT96EQrrDfZMkjvmYhQEKMyBe99ypm1YxDjRi4AWns/XeK8SUL/WBVRxwgCmtXFaPPP+UGtAm2qa3d7/vLxHQ9ZShbw8P31X4V0QytiENtQJ9sb609DLBPPFx3fVodMbRjBr/+n345BDmwbYsnBynXJmX8ce4/3+U84bWV6t+0wdcjfX+gf3MxdOLRB/Mnz3dgw0cT559sJ8soYTvoD08sJkmgnHfOw2Ycun7GQWYIGOAgBHvWDfjvMXFgUNvhBiTKUBZhsIvrC6fsKStYckfanWsz4gC42+eOXuqXJQMGuZd+8V5de7Q6YqQcI/3AuTjnlvd3+IFYiMM7Vy8uXa/ky4ZGrj/Ml36W5QTpN4RjGMBldoHrXXzHal+Oa/TLDpPtoC76gjL0DWXiPoRMrH9hYjkn1rNc8yvnvl9qX61fJ4kS9fQqZt1Sxfiq5V55yIGt/cXYfDcAMf3uBiMhDgzWQhiQ8TUra3fZpQHR3f3uv//O2uCJ8Hn/Pbf6wTJuT4xWxIE69t1w7QR5mBRf/wN3+2vRSEArNDqG66M/PGlaON/PErS6ttpyhZNwmQLE1+aXROjrQOhXWZYhn+9eHKEYe+Nlp4MdB3WnHJ/T13MGRhy6njgwY8BAJLLpja1+gxz53GnKgEkZIQwIMwoPff2FuvoY8D68ZVVtEET4vODvK/wAprUpRCvicP9hz/mfCspyAEJ7n/rJG77+uD1aHTFSjuG825fumjzjxDnpKwgVD6ead9QrtWUIEfrszd996Nv19lWLSv2MSB9Sv8wKIBAG0iALXCczEK/+duKuX6uL/l106yrfRspofch5wvahS+qQayaf6wklR2/djJ4mDhPT2md5yKA2fNrxEz9ldGDQYkDyn126H4zPP7sY/vXpxfAvTzlYzuVJnRxDGseF56iVDc7VCnFdGhgUaY9Wv3Z9rdDsGGkP5+O8UlY7t0AIQrhMAbRrk76u1Rf0K5tVIWuQF3TAcxw8gQsITt3xGdc9Z2DEoeuIg5+K/tmbHnxmUGDQfe6Utz0YQJ740Wv+OQYMRIDPlGFwk3IMlFp9YZqUDfNagXNLO7R8IG2S+jlG8rT2tELqMVxzeE7ayGfpizAfCJkhL+5nIMfF+ZIu1xm3K64rzm/Uh2H70CV1hMfK9Qha9UevoC3iQAHWJQkOfE4BFRN85LsaFA1dheFTjpsY7N2df7hM0Q5kI+iBgYFi9LmnivHFE0sZfibjv40cJMMRh9CvQuBf4sApwH/xYy0vBoM7REPL0xD7ezPwVDlIiZangadMaukaNrt6eaqdlrepQ8TBYJhrWOuIQ+hLkPntLfz9kJV9g8XyTYPFh+sGi5WbA7h09b/DwvUTx0i6GhR7CPuuutgPgI2w/57b1OOmCurVziegXdpxudh343W1wZ1nSkx1cB8+/fiJpZJAmHHYd/01anmDjq1PP6v7mPvPOxnws0b5/r/Aff8Qn9x48HucH/5f5spRvlF+fPzCjwaLFaQ1yA/Tl7q4sCisO8ov/XdYQNxpkh9+X+zqnb/24Pfw/9LFvU8cmPZmWr8RXjl3vnrcVMC+isXsL1DOB1Y+tN7f1WvHGmYHFr3aX/I1fHJFML7X8oLvXbNUMZMYOuEHE7/caIDhX5ysHjdVUK92PgHt0o7LBQN9x+uM2j58zsSSiVbW0AC2VNF1SxUziSePfd1vtGuEZssT7YJp/aeZ1lfOB5495a3i/sMn9gYYZid6eo+DwTDnYMQhnzhU/HNMg2GuoX3i4AplEQdX1oiDwTBFtCIOGT7piUPi4F4pcXB1ZxGHDHJkxMFg6DxsxsFg6CXYjIMtVRgMMwwjDgZDL8GIgxEHg2GGYcTBYOglzEbi4Oq2pQqDoXcwfcTBlTXiYDBMEZ3e42DEwWAwZMJmHAyGXoItVdhShcEwwzDiYDD0Eow4GHEwGGYYtlRhMPQSbKnClioMhhlGW8SBAALrX90/EUxSQFmCiXwfufBXBoMhEzvfX1DyqxD4V65P4sdaXgzKrcmoe9VmR0wCf28G3j3B+yS0PA08vlZL18Bsw7JNet6GdbuL5097x2AwZOKjJdtLvpTi74dw9wGTx+H5nIJ1jvXzMhv5zlsXDQZDHvZs21HyqxD4F36m5WnAf/FjLS8G5SAPWp4G2sEShJYXgxdRQXq0PA2QAS1dA8FstQtqWt52ZjlW7DEYDJnYvn2g5Esp/t6RPQ4mJib5MjA8UvKrEH6pwvmZlqdhru9x2D0wNNmrJiYmObJncLjkS+l7HFyhqexxMDExyZeWxCHDJz1xSBzcs4lD5O/NMFN7HIw4mJi0J+0TB5txMDGZdrEZB5txMDGZaek54rBly5biyiuvLO69995i//79k6mdkSrr1mRwcLC4/vrrPfisybvvvlucc845xZo1ayZTTJpJOzqk3COPPOKP7XYx4mDEYSYEH8GnmsWqUCRu8V8TiX3TFWunW9qJQ/QJ5VP6d6al54jD6tWri8MOO6z41a9+VQwPD0+mdkaqrFuTffv2Fa+++qoHnzV56KGHio997GMNHdCkLHv37i2ee+65Yv78+cXY2NhkamPBqe+6667i6KOP9vrvdjHiYMRhJoR4SFz8/ve/X+zcuXMytbGsX7++mDdvnv+vCXVQ13TF2umW3DgEWfjjH/9Y/OQnP0nq35mWntvjEA/u3Imfe+65xV//+tcaU3vvvfd8Grjqqqs8+xPGLN+ROE0jDqSTL/U99dRTPl2Ec3Ju8qhr+fLl/jNtaCVybNj28HzUB4w4pIv0H/2GfsUWXnzxxZqeRN/k33333cXhhx9e/Ou//mtx2mmn1fSm2VAo2IHkYYPULedEmh0vx8r/UP+tZEb3OGQM7rN9j0NoZ8xWia5Dv5fYJIj1HNoICGNLGFdAaLOcM7QpqUeOlzJyPvkudYXtkPMAKSP1hO175ZVXsoiDHBv2h9i7pM9m4hDaB/0v/aHFIXTwpz/9qTj00EM9zj777NoMc6iDUOdIaCOcRxt7mh0v+pD/oV20kp6ecfjoo4/8fzr7gQce8HftdBR3jwy2gAGBDtuzZ0/x97//3X9/6aWXfF19fX3FUUcdVfz0pz8tduzYUUcc6OTzzz/fHyP1HXnkkTVjAHfccYc/P3kMQExP8ZmZglYirFucEaXRVjkf9X3ve9/zn404pEmsQ5mx+c53vlPTE/170003eZugHGkCyjeyIXEq8rEDybvkkkuKI444onbOVsf/4Q9/8OlSx29+85uGM06x2IxDd8w4iJ3ho1/72tdqukbvBH1iR2xb2N+jjz7qj6dMaCMAe8B24rgCxIbCOLZw4UJfF98pA/HFxiSuYVcDAwM1cix1Ue+ll17q2ygxiDQp8/jjj9e1jzhEfipxEL+TOBj6DDj22GP9OcVnZpvkxKGtW7f6fpW+AcT7ZnEkZeypMg71LHFgSgeWRGfceOONfmqIzvz9739ffPnLXy7uuece76TC5N544w2vDD7jaAgEguP5znRSrOx//vOfPv+CCy7wdUFOUARKWrlypQef5Xzkn3XWWSXlNZOYONBG2sc5qEvOR31GHNKkkcNKn+Ko9LFMCb755ps+jzTyVq1a1dSGcDrWbqmTdPKZYsROOCeBvdnxiDjsySef7POXLFni01PEiEN3EQexG/RInECvLH0Rj5599lmfDsTuKEOcwp8pK7FFsG7dOm+32FJoQ4C7fgK7xDHOgz1CGKgL8rphw4ZaXIMASIwS+6cezkk+8U1iUGjPmzdv9vsPwvZJ+9shDprP8J/v4qezTXLi0LZt2/xdP/oWnaODZnGk1djTaixEphKHepY40AEYP/+XLl3q8wjaKIK0X/ziF55BnXjiib5zIAfMKjC7IMycNMrKoBwqm7KUo+OlfsgFCqK+p59+2oPPDBw4dJiP8lpJTBzkzoE6qAtImhGHNGnksEIOxQakzyVIcwzHtrIhAjMB+gc/+IG/s0OwD+yEerh7aHY8Ig5LYM8VIw5tEIcKlirEzphWhiQgYgcXXnihD9wIcYYpYGKJkEtsDoJA2R/+8IfeRsDatWv9MeL3oQ3dd999tTr7+/uLb33rW/48zAxgj8cff7xvD6RBjqU9kAtsTWIKErZT7nb5TpsQ8QHSJPbFftNKxO/4r/mMXL/0x2yT3DgUjwWt4lCrsafV8chU4lBbxIEg0u+cPevJka5s+OTIdkUUwgV/85vfrDFnRDqfvBg4CQoUp2IaB2eWZQokVDYs8NRTT61zFLlTQDmhc4iE+a0kNhZRZEgS5BxGHNKkkcOKPkgjT/pcvnMMx7ayIdYRw/oROYY07hSaHU/w1/ScKnsGR0p+FcI/OTLDJ/2TIwOfbAYGYAZsLU8D7YAQaHkxIA0QDS1PA0RAS9fAkyPXbNHzduyZOnEQnSKhHbApkGlhppOff/752h2m2A3BnhkEScceCOyyv4CBlb0T3A2S96Uvfam4/PLL/fICxzIQsBxx2223+XZQFjLBXWYY126//fY6W9PsFZAe5odpsd+0ktDvYp9EwjZI2myS3DgU97l855gY2BxjHp+lPiQce1odP9U4tGtguORLSU+OxBnXu4LyfOoUrOqbCDzyvV0RhcBecUj+H3fccd6hWM9jsIfJsq6HMwkgCrAyOglHlTU2YYBh3SiUun73u9/5MjK1Q2fLFN7LL7/swWem4bizCPNDhTaS2FjEyamDusIpvnaUOxcl12HlO8dwbCsb2rRpkw/QBHKWNRDsQwYFIZzNbHAqDrtjz0jJr0LgX/iZlqcB/8WPtbwYlOPRzVqehpWuHRsDf2+GdW5g5z0YWp6GFZv0dA28A2Npg/L9O6dOHBi85S5a7IC4QWzipkbiC/sRwhkHEVnSwFawGZkNFWH6GNuRvVayP4u7RL6zvwJ7hGhAJrDLMK5JjJKYgoTtxF7DGISID4SxD1un7rBcMwn9TmZIGvlM2B+zRXLjEAj10CoOscmS+hqNPSlj4VTi0NbdwyVfSvH3rtkcSefIPgT+0xkyo8D0zHnnnVeDTAPCwpnCocMoF3ZarGyUQxmmE6nj17/+tTd+mXIDfJbzkY/jhwbSTGJjYVqQ+gF1USd1t6vcuSi5DivfsaHTTz+9eOKJJ5raEHd74nA/+9nPfDrOS3mxyVY2OBWHtaWKNpYqKtzjIHaDfokT6JVBXexOYge2wnexS4J3aBvi6wz+2OXf/va3Uj71kC82A1EgTlAnx2CXcuMRlpMYJTElrIv4FscghDgqd7Rx+8NyzST0O81npK+kP2abtEscJG68/fbbTeNIq7EnZSycShzq6V9V0Pkw5pNOOqk264BDwc7pEAHfKYdIh5IOgZBlCiSum7uBO++803e+1MW56GjqATB6cWDyYHd8FgNpJrHT4mA4rJyPes8880z/uR3lzkXJddgwSAKcqZUNkY+uSUdHrC1yRyXnbHW8EYcyenmPA8H7xz/+cZ2eubMmT9JZi8Zm+HUCQV+zEcp/8MEHPg48+eSTtbgiIG7JfgoI6imnnOLTIQwI9kTswBa5y0ewb+7uw7ZQ78MPP+zrimOQCNcQto9rpI64XCOJ/S70GUBcox3iM7NNcuNQSK6kXLM4kjL2VBmHpo84uLKdIA4Y+zPPPFMbvJHFixf7NHEqOgzHEPA9FFEijih1IFrdkiZ1cS4RiArTfWz84Zcd5MmmFVFeM8FYZMmDz0h4PtJZU+ezKNukucQ6FFsQGyCNvLDP6dtYv41siClBNqqxvwYnpB6CBDYQBsFGxyOcg7R2dNqSOGT4ZNcQB1d3FnHIIEdVEwd0jj3FehY7k3R03SpOhXFHYkOYH9pLWL+cU2w/tG0kbkuYL+eJj0HC9i1YsMDXoZXTRI6VtiFi94C4Rl3hNc8maScOhf0t5cK0MD117Gl0PDKVONRzMw5TFQI/G4hg5ihuKiJrd0xXnnHGGX4a6JhjjulI3SbdKTg8DouDomt0ju6xgZiIViE249DGjEOFSxWz9Y7ZpLtlpseeOUUcWNthPZrpHXYo85OVqQhMMVxaENxwww1+CeT++++vrSvFuPrqq/1PoUx6T5hODqd+AVOFPJCsajHiYMRhpoU4qsU0AXe+JtVKs7FnquNaivTcUsVUJJyS7lSQR0k4itQrUz8yFRWmh+CY6VCwSedF0y3TftMhtlQxEaS0dA1VLVWI32MHVc8ydZuEcVTDdPnCXJdGY890yJxbqjAx6WWZlTMOPUgcTEzmsswYcWCvgcFgyMPAUNlhQ/QscZjBpQqtjw0GQ3PsGRwq+dK0EQceWmEwGPKwN2L6IYw41KMZcdjloPWxwWBojt0DZV9KJw6uUBZxcGXDQDI6OmowGDLRcsYhwyc9cUgc3CslDq7umViq2DUwpPaxwWBojrZmHHh8ZPYjp11Z7hTku4mJSb60fOR0pk92xSOnXd1Zj5zOeKz2Wlfv0o163lQeOW1iMpelrUdOcyfBC3VgGXxOAS/U4c5CvpuYmOTLnqGRkl+FwL/wMy1PA/6LH2t5MSgnswgpiP29GZgVYPZDy9MA0dDSNTBLAinR8nbuNeJgYtKO7B4cLvmSvPAyTIsxa35VwXMUeGgP/1m34XPKzzTnz5/vHzPMJhFNeGkNMJldgo3wCPKpPn8Du8F+2vlJsD3HYWJmRUvX0GpzZDdIGIfCz62kWRzKiWcmvSXotNn4kypTiUPt/6rCFZrKHoduEH4H+8ILL/j/8sz2lKdu0dG8hKTR77d5BjgwmV2CjfCgJx7+MxWR59S384S3jj/HIXFw98QhY3CP/b0Z5vrPMcM4hG3xPosUG2sWh3LimUlvCTrtxIPHphKHeu45DjBx7vp4yMgFF1zgwd096QzWfIdpw7gRYVVSFsDUkZDd5zhazPTjc/O+cyMOs0uwp+uuu674r//6r+Kss86qsXT+h7Yl6WITYmsIn3my21133eVfd3vyySeX8lPEZhy6Y8YB/ebEoTAd8Jk0yZM4lEMc4jjEd6kfGzPiMPuE+ELcIH789a9/rdlXoziETYS2JuPhU089Vdx7771tx6GeIw441Le//e3iH//4h+8AXj97/PHHF9dcc43/fs899/i3xr355pu+k3ghEe8WIA/wClqe7R07aQ5x4CUiwvio5+KLL/ZKpH7ahTJQlsnsER7x+thjj/mXW2Fz6B3nvOyyy/zbCcUW+U4ed4/YBPaGc5PGZ5z1lVde8bbGY8flFbepYsShO4hDThyKYwR5lOVYYlQYh8LPrSSMQ++//763L7FFYt5//Md/GHGYZYItETeIHzw1krjULA4RX7jRefDBB/3x2AM2w2vdX3vttbbjUE8SB4I3U3vI9u3baw5LJzJtx10dbwzjM1N5H374oS+LvPPOO/742EnbJQ683Yzzb9q0yeehLN45b8Rh9km4VEHAx0EJ/tgdAlnACcVJsQkGD75TjjzKTGWK0IhD9xCH1DiEzp944gkfGxDJkxgSxqHwcyuROCR2J+dG3nrrLf9OHiMOs09k8Md2UuIQNoptYhOQy8cff9zb4FTiUM/tcYgdSy7+pZde8t8RHCoeuJlGZAoH9sWrSGMnbZc4EBhg9yhCBOZnxGH2SUgccM6f/vSnnhiEU4THHntsTffYBE7KW+uwlxUrVvj0qTjsjO5xmIK/N0Mv7nEIYweSEoeYeSJeiJ1IDAnriuttJhKHICTYYnjugYEBb5tGHGafhMQhJQ5RhjHq6KOPrt28IFOJQz0546A5bHjxocMKYWDfAVOEsLNOzjhwnjA4IHHAMJkdEhIHsRcckenBEOEMF2V5iyLO3QmHtRmH7plxSI1DQhh4M68sZXDnJzEkrCuut5lIHNq8eXNd7JqKjZl0t6BTsZ3UOISt8PZM7FBkKjYyq4kDDvvrX//ary0yTcMdYHh8+Lld4sDsAqSEKSMRlGPEYfZJSBzkju6ZZ56ZzK0XbIIpRIgrZZl9QKbisEYceo84MNOE/u++++7aWnIYQ8K64nqbidTBGxFjW5Q70XZszKS7BZ2K7aTEIWakIKoXXXSRX7KQjZNTiUOzmjgQ6JmyEeYFkSC9k0sV7KrGQaU9KIVNU0YcZp+ExAESysZb2WiLQBRYV2SjGiIOvmTJEk8axGmn4rBGHNogDtO4VKHFIdLCGSdsoJNLFQwe2OJ5553nYxyCvX32s59ty8ZMulskrmA7reKQ3LwwI7Fhwwa/ZHH55Zd7O5lKHGqLOPg1Sefs65wD8zkFH7my/e4Y+d6uxI7VzGHZLHLLLbd4RsaswJVXXum/s1TBpsawrnaJA+dgpzyMjnOw6em4444z4jALBV2j45///OfeKXFUHJHvpP/2t7/1S2HcVcrggFPj3LLOiNPymXLYZe6DwnYPjpT8KgT+hZ9peRrwX/xYy4vBwC5Pg0xB7O/NwPMhCDxanoa1jgho6RogMKv69bzte6aHOGAn5557rofECHa9E29YZgjriuttJmEc4hwMDnKO66+/vjj88MPbGhRMuluILRBR9I3em8UhfnZJWW5wEZn9kg2S7cahnQPO5gJfgpzzdNkwLcYh3HnA+lc7h+RzCnjOPU4s39sVgu5zzz1XY+9cPMsQdJ4IHbZw4UL/mfT777/fg87i+/PPP+/LhHUxKJAe1tNIOFaWPhCOp27OQTq/iZXzm8wuQa/oGRtA+C/2FaaL3cV2iY1ha3Jcrp3s2DtS8qsQ+Bd+puVpwH/xYy0vBuV4dLOWp0HemaHlxeA9GGu36HkaeC6+lq6BZYplm/S8LbvaJw65cUjsBlCur6/PxwyOD+uK620m1B/GIbEpsHTp0uR4ZtJbImOV2A8S6h7wHcHuJOYgYqdil3Jcbhzatnu45Esp/j6jSxUmJnNZbKligsRo6Rqq2uNgYjKXpef2OFQtMPQ//elPfiOJhptuuqm2jmhiMt0yK4mDqzuLOGRcY1V7HKoWpqO1+CNgDTvckG1iMp0yfcTBle0F4sDUD08IZG1aA9OIIyMjk6VNTKZXWhKHDJ804tC9xIEbGC3+CHgipSxRmJhMt9iMg4lJD4ktVbggZUsVJiYzKkYcTEx6SIw4GHEwMZlpmbGliqGhIYPBkIm9g0MlvwrhiUOGT3YNcXB1z8RSxa4Bi0MGQzvYE8WhaZtx0BpjMBiaoyVxyBhU58yMQyPi4KD1scFgaI4ZIw7j4+MGgyETtlTRBnFosFSxa2BI7WODwdActsfBxKSHxIhD54iD7XEwMWlP2icOrlAWcXBljTiYmExNOv5zzMTBPZs4RP7eDPZzTBOT3pK2iAOFcMaVmycOSMGKvoln48v3TgqP1ASthAemPPzww8W6desmU6YmH3zwQe28rPvwHoxO1T3XhH5DN/JQm1SddlJCfXarbNszUvKrEPgXfqblacB/8WMtL0auvy937eDdFlpeDN49wfsktDwNyzKukcdqL9mo5/Xt7CxxSLXZTsahuC7elEkc4r9JvsQxIFWnnZReiEP9u4dLvpTi74fALJheZDqSzylgepG7FvneSeFFMikvlZrK28A0kZfYIDwUilebbtmyxX83yRN0Ii/sQXAeMJ0S6rNbZe/QSMmvQuBf+JmWpwH/xY+1vBiU41n0Wp6G2N+bYcvOidkMLU8D77bQ0jVsdvWudeRBy9u1t7PEYSbiUFzX7t27fRziv0m+xDHA4pAuuweHS76Ev29v4e8zvscBNn3dddcVl156qX9lKI9gDTv6hRde8HkCvsPMH3jggeKrX/1qcfrppxcLFizwZZkpoI6wbIpwPK9J/u///m/P+HniJPXA/KmTN2byOmVpJ2VwZjkX6eFdAcdJG0An7kZ6RbhWdIJueKQ3/YceRBf8f+edd3wfhn1HuvSX6BNpptNGebE+sZfQzkCoM/6LjsO6wmM4D+dDGl1Drtgeh4kgpaVrqHKPQ6zrMA7JTIDYBsDGOhmHtLpok8w4UKfFoXTRYgB6EF008mHSpb9En0gznYa2Ex6ntSEuG+qM/6lxqJE9cI5c6bk9DnQIrxDlwu+55x4/0OA44rB0Gg58++23+3xepY0S1qxZ41+lfdRRR/k0XltLR/JaUeqgLMdwbKj8RsLxv/71r/0rS9944w3fLnktN6/o5pXKf/7zn/0z5W+++ebihBNO8Oe9++67/bnOPPNMrzQE5ySPcuRxbVdccUXNOGa7MEvD9aMb3vjG7A36FJ3y/7TTTivmzZtX67tf/vKXxW233VbTMa+SFedopFMcBMf5/e9/X5cX65PXHYd2Rtkf//jH/pzUQ/nvfOc7xa233urzKfeTn/zEv+eEc1D+5JNPLt5+++3aNRxzzDE+T8pTf66OZ3SPQ8bgPtv3ODSLQ9gHAzqBmTyAbZ111lnerjoVh3jkdFwXkNdyWxzKE/osjAH0bxVxiDzihNgO/c1x9H/chk7GIbEH2iFxCBvFVnPJQ8/9quKVV17xHbdx40b/nUGHThblMq30+uuv157jzstiDjvsMD+gx9N6dCZKkuUFjnn00Uf9u/JRbisJp5RQSkgc+IxiqJOBkPOcccYZtSlEzoMCOc+NN97oDUzegUGZq666qubQc0Hot3CpInbYuO/Q6aJFi/x3dAxLxyaa6XTHjh3+HOhN8rAVnA8J9cm5HnnkkVI9f/3rX2tt5JgjjzzSv7sEIbhil+gNPUp59IpQL3Yq9dFWymPPOWIzDt0x49AsDoldhVPc2CX2gt10Mg7FdVF/SBwsDuVJvEzAZ/nO/07EoU2bNtXGCoT+fvrpp2tlq4pDYg+hjjkOu+3v7/ffU6XniAMXDUuiQ0RgX6GyEZgdTO38888vPve5z3klxU5GXcxGUE5APqyMTm4lrYiDnAehHO0UIY9z8TIb7gIwyLAdGGB8TbNZpD/QEcK1y/WHnxHKwqIHBgb8d/r7pJNO8k7UTKc4FUGUviUdhwyZdhw0EAIqU32iE2ljGKARsa0XX3zRf0fC+vgf6h/7xY5pb44YcegO4pAah5gBFRv8+te/7u2lk3Eoriu0S4tD+dKKOIR57cYhBmkGdunrcAkDqSoO0T6OZalChBkNbOTDDz+cTEmTniMOsfKQsKNDwsAUEGg048AxsC2m7ULA/oSRNZPwvKGTNnJYyouQR1tEcUwJxu2Y7k05MynSH+gIob+kb8PPSFw2dFjKNdMpzJ3vTN/+4Ac/KC6++OKa44b6FEfFjnByjuEOQs7byGFDnYf18T/UP0Ka5KeKEYc2iEMFSxWa7kJ9C2Hgbp6BGntrNOPAMe3Gobiu0C4tDuVLqEOEz/I9/IxI37UThyjDd/pbCIYsTYVt6GQcCtsnotlIivTcHgecEGcM7xRhd3QMafy//PLLawoKOybuVK2uHAkVHJ5HUwblNIflLhjW+uyzz07mzE2R/hAnpL+kb8PPSFw2dIhUncoUILbCWiUOGupzxYoVXi/UJ45Gvpw3x2ER/oezC7RPBpUcmdE9DlPw92boxT0OzeIQtnTOOecU1157bW3ZNLSXTsahuK7wPBaH8iX0WYTP8j38jEjfTSUOyY0MZIC6KV9VHKJ9zHiEswssq3B8OAuRIj0348B6ElNqbHZE2FACY6NjpNPE+FEC765vtFQhdc2fP99/R2B98RR2IwkVHDppjsMyzcX0+c9//nPvvAjnpg3CQOeCSH+IE9Jf0rfhZyQuGzpsM50S0ON+ZZMQTgvJDPXJOaiHX8sg2BmbjuS8OQ6L8J87ENEx9kv9sj6aKjbj0MaMQwVLFc3iUBygsTtIRKOliqnEobiu0C4tDuVL6LMIn+V7+BmRvsuNQ8QUNjNiMwj9TL3sRYBkVhWHxB7YyyJ2xf4V4p/s20iVniMOBPi77rqruOCCC/xGEzqB3ep0DJ3OBhSMnzymodlV+t3vftcPEOSjHO4wmUqUuqQ8oJ6XXnqptHbZSNgAw2CAEYQbXnIcFkXDOmkrCpR2004xhrkgbCzCQQiwBC76CyDhZyTsOyR02GY6JS+0D8BdAT+xQkJ90h70EdoZemF5gzXKHIdF+M+mJa6P+qiXdtKmHDHi0B3EoVkcIo/vxBnyrrnmGv/9m9/8pt9U2ck4FNcV2qXFoXwJYwCEj/4CSPgZaTcODQ4OluyDfma/jPRzVXFI7IFzUQf1hfEvR3qOOCAyzYximArkwmUdLswDDOjhDmc6mPRG5WVqMUXkWJZFYIT8x/kwGvkswvlEuQh54bmkXYKw7FwQ6TP6k36lv0RH4Wck7juOZTMQxyHNdJqSJ8tcnDMshy1J+8BTTz3l/yPUQZlQ5+hQ2o3j4rDUTX1ST67MSuLg6u61PQ6I2IvYRxiHsAOxHcrwHd2LX4u/S/mwLqlP7LKVhHWFdmlxKF9ED2EMEB2Fn5G473LiUGgfIKxXa0NYR7txSIgDN09hfal2FkpbxGGLu0PgN904JJ9TwGNlCQ7y3cRkLkl8t9Ku7BocKflVCPwrxycpix9reTEgDesy/Z1BW8uLAYHhcbVanoY1W/R0DZAMHpWt5W3bMzXiYGLSS6LNQLUrO/YOl3xprfPJVv5+CAGKOwocmM8pWNM/ESDke7cLzJGNc42wcOHCyZImJq2lU8Rh58BIya9C4F/4mZanAf/Fj7W8GJQjOGh5GnhHBGRDy4vB4A6J0fI0rHJEQEvXANnh/R1a3pbd3U8cLA6ZdEo6SRy27xku+VKKv8/4UsV0yPvvv1/ceeedDbFq1arJkiYmrQV7AlMV2+PQxlKFIzxa3lSXKqZDLA6ZdEpY9mBZI1zGaFemb4+DK9tLxMHEpBul4z/H7Abi4OrOIg4Z5KjKPQ4mJnNVZmxz5Pj4uMFgyMTAkG2O7BRx2OWIg9bHBoOhOWaMOPCTFIPBkIe9g0MlvwrRs8RhhpYqdjlofWwwGJpjjyPdoS9NG3FgvcVgMORhb8T0QxhxqEdT4uCCn9bHBoOhOfZENzDpxMEVyiIOrmwYSExMTPKl43scEgf3SomDq9v2OJiY9I705AOgTEzmqtivKtqYcTDiYGLSUek54rB9+3b/GGn+d1J4FCioWqo6z3S1fy4Lj6D95z//OWXbGx0dLebNm1esX79+MiVdjDi0QRx6+OeYMyU58aSq2FNVvb0uxA3iB3FkKjKVONRzxIHHZ4bP5u6UdOoBPa2kqvNMV/vnsoTPop+KaM+TTxUjDkYcpkNy4klVsaeqentd4ndktCtTiUPtEwdXKIs4uLJVEAfY0pVXXll7ghp3hXfccYdPA8JYKUc6+SIcI8wtNlLypI74ODkn4PhnnnkmmRlzDl4sErYxZHxh3SA8d6NrQ1rVazI1oe95bfLhhx9enHvuubW+jfUl6cxK/O1vfys92Y/PzJYxa3HEEUf4F+CE+Skyo3scMgb32N+boRf3OKBf9Lhs2bKa7kN/lLu50DZiW5B07CScxaIeyRP/F98PfZpy4Tmpg1jEuUO71Op/7733fLrkAT7LOYklqYO2xbTpE66fuEH8+Mc//lHrx7iPpZ+ws1D/Ype8EI03Y7Ybh9oiDjxXnsfP8ihXPqdg+aYJB5bv7UpIHOgcMfCVK1f6TiS433DDDf795TfffLPP5/W2a9eu9Y/bpBxCB/7xj3/0L/qIiQPlL7zwQt/h1HPFFVf4eqkfBVAnLywij+O/9a1v1Y5tJZQ7+uij/QDC8b/4xS+Kq6++2tcdXg95nJ8287IT2vjAAw/4tsTX1qpek6kLO4npf16NTF/zZjr0RR+LnZD++9//3tvIrl27ij/96U/ejsRueMMd+uG177yCGRsSe0yVrXtGSn4VAv/Cz7Q8Dfgvfqzlxcj192WuHTzuWcuLwaOveZ+ElqdhacY18njqRRv0vE072vcN4g86vO6667wvij++/PLL3lcJyhIjxB8BdoDdhPEFO/nLX/7i7QR/ph7qIw9/x+727t3r7w6xHYSyZ511li/L+ZBXX33Vvz2RWBfGEepnMJHBg/Tf/OY3fkCmbq6FfMpRnvjJgEK5FKGcxbTpEeIOdoXt8aIr4lKzOER8Of300/2LrRCeRIodvfHGG548tBuH+ncNl3wpxd+7YqmCV49iZBg7QRqRKRw6FxEHxjCZZibvvvvu83mUOeOMM7yTIXQ2wChxapwHpSBLly4tTj75ZF8/zoki5BwbNmyovYc/RSjH8dLmt956y18PbzyjThxJ8jg/beYYmVaSV+JybbyiVxTerF6Tzki4VEH/E+hCO6HvsTVxUmwDu4Hh83hg8ihjSxVl9OJSBTZw5JFH+viCLQBuIhjMGeTxTe7qRfBHynMcemfwxJ4Q/P6JJ57wdoR/YxsyDY1/Uxf1M1Bws8Nn/BrboizHk8YrsF977TVvl8QwiQXkh4MHsYLjxG6Jaccdd5y3V4Tyxx9/vMW0LhUZ5+g/+qxVHGIW6oQTTvD2yM2L2OxU4lBP7nHgru+UU07x77eXgR+hA4866qjiqquuqgFmjVPgpDieMPRFixYV559/fq2zMVKAUWKcixcv9ukI5WFlGDjn4D3pIpLHsSki5xERIsR/EZgihkD7uR7Kcx4CEwZA+mOPPebTRFLqNZmahMSBwQFdnH322SV7I030gH5wUuwPB4WAIkYcyuhV4vDjH/+46Ovrm0wpfMyIBzZmILAL4hBxi+OEUF5yySU+jztGEaaMsaHLLrvMxwCZJUCon5sdbI/B/vrrr/exh1jGAE19xEOO5+VYoRCzxC7jWEFMo54wnoTlW0lcnxZ7LKZ1TkLikBKHIBIQSexVbl6QmSEOrlAWcXBlO0UcDjvsMG/oXDRsSoSOonMw+hCPP/64Jwg4FY6Hk91///0+qIuIkTYyTvIgDvI/FDk2ReKy4fnEuc477zx/Z0HbuR4pT7tJu+aaa/wUHm/HIzAhzeo16YyExIHP3DVih6GtgfBOk7LY64knnuidHKmUOGT4pCcOiYN7NnGI/L0ZenGPA3rFFmTWAAl9Dr9kupgbFZY58VmZcWBw5M4aW8G/CfpCEohTxCuOgXASC5itYiZ027ZtxZlnnunvyBnsZZ2aWAZ5YJmCMthlbFsSu5A4VsTfkbB8K4mPD/vBYlrnJSQOqXEIfX7sYx/zdiMyM8RhBmcccEDYt0zBCGOns2RGQROcklkG3hBGuXC2QoyUOwgUgSOKUB/l6XzOEXa+5IUG3kyaOYMsg3AOHAqJyyMwRqb/MBamRgkqzeo16YzEMw58fu655yZz6wXbIOizmZKyQnIrJQ4Zg6rNOEyNOBx77LGl2QViBrFjzZo1XucMhrLM0MgfCe5CEvB/EY7hWNkTAFkgjVkGmTklfhEHuYuEPDCV38guiVkSH+JYocXNsHwriesLr9ViWuclJA4pcQjyxhIFNhmOl3OOOIjxyBSMbJhhmo87u/D1xWy0CafAYOjHHHOMN1BZpkDESEnDEcNNONRHvdSPc4adj/PmbiRq5AwQk9CBaTt5lCeN65CNQwjBAsXT5mb1mnRGQuKAPphmlQ1vSKwj2YiE3WB3YjdGHMroVeLA0oOsI6N7Bltix+bNmz0RkJsP4gibH2WpAhuQWQSEARXbILbE8QrCAHGQmxxmGYhf2A+DBjc6p556qo8bzDZodsn5qF+IaxwrJG7KOSgvcSdFmsUei2mdl5A4aPoO+5XPsr8K/Ybj5ZwlDsiSJUtqd3MYG7tKf/nLX/ppQsD02PPPP18zXDrvi1/8YmmZAgmNFGeloyEX1EFn89Mr6oesUCeKIo9gwRQbjDpFmjkD14IiObfUzTSmbLjCCcNrwyHffPNNX0+zek06I+ifGSumXXFKBgiYPN/RB3rjjhD7YR2bYIxTY3vYDWW5C0WXlMOGZFo2VYw4tEEcKlqqYOZTfFXiBbrHTpgpkBjx5z//2X+nPHfg2A1+LvEF+yEfG4ljwMUXX+xjGnUiEr+wH+yKdKlLYhz1E6PELqmD5QLqR+JYQR2cg3KUl5gWlmkmzWKPxbTOCzZAbMEGIAvN4hBEU256kXC8xF7ajUM9t8cB44dNiRNw8Vy0rOeQziDPQA7IE4dC5K5R2LUIx4drQnS61MH5xHERFBXWz0+ZcIAUic8TXo9ci9RNOdoh5292bc3qNemc0Mf0PXpBQjsJ08VG+C8S6lKOC3WWIj2zxyGHOLi6e3GPA4MY+xFE96EuwxiBz/Id3Yt9iB0JxE7iGMCxoQ9jO2E9CHXFdhSfP6xDKx/GFs7P4B2XaSRxfWHssZjWeREbCPUq8UQQ2pn0NSL6kH6V48J+TpGem3GYqtBR8TJFjnCnSbAQ44bxwZ6ZZjQxqVpsxqGNGYeKlirs7tdkrsqcIQ4M9Az4TBWHm5ByJZ5646cvTPPB/GByMuWmIVzLMzFpR4w4GHGYTrGYZqLJnCIOOEE4bdOOSD087hOwmUemi9hkIukaVqxY4cuZmLQrs5I4uLp7bakCn+fBXrN92tximokmbREHgsI6x/p5TCyfUyCPlJXvJiYm+bJ9z0jJr0LgX7k+iR9reTF4nCyPb9byNKxwZZkZ0PJiMLCv7tfzNCzv09M1rHH1Ltmo523e2T5xMDGZy7Jl93DJl3gcfSt/P4QCOPtKCruEGly6+t+Bigk+km5iYpIv2xxxqPlWBPzLO3CDfI9Jf+Qz/ss0fq285IXfJ/9TDqLRKD8+Xt6Z0Sg/TOc9GJCSRvml/w48F7+ULpjMD9NWu3oXbyinCfqMOJiYtCX9jjiE/gaZXx+M77W84HtHlir2799vMBgysXeoPEUYomeXKmZwj4PWxwaDoTn2DA6VfAliUM0eB1c2DCQ8gMJgMORhb+SwITxxyPBJ2+Og97HBYGiO6SMOUSBhk6HBYMiDzTi0MePQhDhofWwwGJpjxoiDiYlJvtjPMdsgDhX8HNPEZC7LnHsAlIlJL4sRByMOJiYzLe0TB1coizi4skYcTEymJi2JQ4ZPeuKQOLhnE4fI35uhF5/jYGIyl8VmHExMekhsxsFmHExMZlqMOJiY9JAYcTDiYGIy02LEwcSkh8SIgxEHE5OZFtvjYGLSQzKjexwyBnfb42BiMnulLeIA44fF+0dOu88pWLFp8pHTk99NTEzyxT9yOvCrEP6R0/I45gTUHjmt5MXI9Xf/yOnA35uh9shpJU/Dso16uoamj5zeYcTBxKQd6d81XPKlFH+3pQoTkxkSW6qYCEJaugZbqjAx6bzYHgcTkx4SIw5tEAdbqjAx6ajYHgcTkx6SGd3jMAV/bwbb42Bi0lsyYzMO4+PjDTHmsH9Mz9Mw6spyjJYXg3KpZcHo2AE1XUNO3ZSj3VqehtxrzK07tXy3tTun7tSyIEfvow457cC2U8vH17h3yGYcOrVUscsRh7CvQZb9OeTovUrb7pa6c2zb1x2lNUNOO6g7tR0gq/8csq4xp+7M/ptKLGmGVu2eMeLAnVMj7HbBcesuPU/D9j16uobdgyMuYOh5Grbt2aema6Be6tfyNOS0e6ere4/rFy0vBoPLjr16ngY23FG/lheDNuzI6D/aQXu0vBjUnaObXtV7v7Pt1D6J9c5dcuhXIYw41KMpcXAI+xrgC3FaI2Tp3elwe4ZPVunvlE2tm3KpsQFs3Z3uZ7k+mePvu7L9XU/XkKv3HN3k6r3f9XdqLMmNxc30DukOfWnaiEMzbHF1s9Nay9PgG62ka9jighTBRMvTsH5b40Adg3qpX8uLQXtzplz5KRxTulpejNwBZJ0LxKmDQpV6b2fKuhv0Tptz9L6qP71PqtR71xCHXL13aI+DhvUZdWfp3fVFlr+7vs7Re45Per0n6iZX75C0VD+j7yrTO/6eqBtQpd5zfDJX76tdf6f6GXrP8ckcvVdHHDIabcShHkYc6mHEoQyv9wzd+AEkse6uIg4Ztt2zxCFT7zk+6fWeqJuuIg45esffE3UDjDiUQRu6gzi4ilMb7YmDC65angaYaE8ShwxjzTWoniUOOcbaJXqvlDhUqHc/gCTWXSlxcH2XNYBk+I0nDhk3IT0745Cjd1e2Kr131YxDRt1zgjjk+GSm3o04RDDiUEaVeuf6jDiUUaXejTjUw4hDGbl6N+JQhhGHg7Cligag3pwBJCuQuLqrGkBsqaIeXUMccvWeoZuuIQ5t6F1L14DObamiDK/3RN10FXHI0Tv+nqgbMCeIg6s7xyc7ThzoODpjjWs0n1NAWRqu5cVY7+petknP00AgxtG0vBgYCI/m1fI0rNw8pKZroF7q1/Ji0F7areVpIPihHC0vBv28OqPulZsniJqWFwO9p5YFtCNV71wf16nlaehVvS/ZmN4nuXrP9Un0qeXFaEfvBB4tL0Y7etfSNaCb5X16ngZ8QUvXQJuT9Z7pk2sr1nuq/eXqnUcPp/oZMwiV6R1/T9QNyI3Flek9wyfR4RLX36m6rFLvKf5+iJ9adIUwED6nQJiolheDi+O5+FqeBi4QBqjlxWC6ZqNTupanYU3/kJqugXqpX8uLQXtZjtHyNOBkKEbLi+HvslyfaHka1rh28JxxLS9GlXrn+rhOLU8D/deLeie4pvYJeqlK7z7AJ9ZNuVQbAVl6d32Xq3ctXQO64T0YWp4GfEFL10Cbk/WeqZtcva/L1HuqbnL1vsrF7VQ/q1Tv+HuibkBuLK5S76k+iQ4hxam6xEaq0jvXyLVqeQLb49AA1Ev9Wl4Mv1Th2q3lafBBJGMKi/7W8jTYHod62B6HMipdqnB9Rx9qeRpy/AadE9S0PA3cSWrpGrL07vqCGQQtT0Ou3hnItDwNlK1K70IYtbwY9F1les/2dz1dQ67ec3wyV++9t8fBFcoaQFzZ1Eb37B4HV3fOAJIVSFybswaQDN1UShwy9M71ZQWSXL0n6gbMmT0Oie2olDi0oXctXYMnDu7OScvTwDKplq4hV+9V+nuOT1apd/o6mThUqfdcf69K7/hkhXqvdI9Dpm7SiIOrOGsAcRWnNnrObI7MYLnZA0iGsfbs5kjX7m7Qe+4AYjMOZVQ+45BDHDLqzh1AsohDpt6zZhzQe6JusolDN804JOoGzIkZB1d3sk9m6r17iIMtVZSQa1A5xmpLFfUw4lBGTxOHjJsQW6ooI1fvtlRRRlcRhxyfzNS7EYcIRhzKqFLvXJ8RhzKq1LsRh3oYcSgjV+9GHMow4nAQvb/HIVHpYP32DOLg6s0ZQLICiTPWrAEkQzeeOCQ6WTZxyNA715cVSLpE75sz9d6zexwydFO13rV0DZ442B6HEqrU+5zZ45Com2zikKl32+MQwGYc6pHLRHOM1WYc6mEzDmX4AaQqvbu+yxpAMvzGEwebcSjBZhzqYTMOZdCGHL0bcYhgxKGMKvXO9RlxKKNKvRtxqIcRhzJy9W7EoQwjDgcxPcQhw9mNOJRBP+cYa1cRh8xAYsThIHL1bsShHnOCOFSodyMOZRhxEAwW/z/2Ya00bceLHAAAAABJRU5ErkJggg==;" vertex="1" parent="WIyWlLk6GJQsqaUBKTNV-1">
          <mxGeometry x="330" y="1050" width="433.99" height="283" as="geometry" />
        </mxCell>
        <mxCell id="MxjxTP8P5uc9W1wrr7oE-70" value="Связь между таблицами хранения данных и таблицами аудита изменений обеспечивается на уровне триггерных функций в БД." style="text;html=1;strokeColor=none;fillColor=none;align=center;verticalAlign=middle;whiteSpace=wrap;rounded=0;" vertex="1" parent="WIyWlLk6GJQsqaUBKTNV-1">
          <mxGeometry x="80" y="1176.5" width="220" height="30" as="geometry" />
        </mxCell>
      </root>
    </mxGraphModel>
  </diagram>
</mxfile>
